<svg width="68" height="68" viewBox="0 0 68 68" fill="none" xmlns="http://www.w3.org/2000/svg">
<path d="M17.1184 30.8584C17.1839 30.8519 17.2499 30.8453 17.3157 30.8452C17.5333 30.8448 17.7764 30.9264 17.9274 31.0877C18.0655 31.2354 18.094 31.3957 18.1173 31.591C18.2009 32.2874 18.1376 33.2254 18.1378 33.9518C18.1379 35.4401 18.1586 36.9319 18.129 38.4196C18.7251 38.5312 19.3261 38.6133 19.9211 38.732C20.1121 38.7713 20.3027 38.813 20.4928 38.857C20.6828 38.901 20.8723 38.9473 21.0612 38.9959C21.2502 39.0445 21.4385 39.0955 21.6262 39.1488C21.8139 39.202 22.0009 39.2575 22.1872 39.3153C22.3735 39.3731 22.5591 39.4331 22.744 39.4954C22.9289 39.5578 23.1129 39.6224 23.2962 39.6892C23.4795 39.756 23.6619 39.8251 23.8435 39.8964C24.0251 39.9678 24.2058 40.0413 24.3855 40.117C24.5654 40.1927 24.7442 40.2706 24.9221 40.3506C25.1 40.4307 25.2769 40.513 25.4528 40.5974C25.6287 40.6818 25.8035 40.7684 25.9772 40.857C26.151 40.9457 26.3236 41.0365 26.4951 41.1294C26.6667 41.2224 26.8371 41.3174 27.0063 41.4144C27.1755 41.5115 27.3435 41.6106 27.5104 41.7118C27.6772 41.813 27.8427 41.9162 28.0069 42.0214C28.1713 42.1267 28.3342 42.2339 28.4958 42.3431C28.6575 42.4522 28.8178 42.5634 28.9767 42.6766C29.1357 42.7897 29.2932 42.9048 29.4494 43.0217C29.6055 43.1387 29.7602 43.2576 29.9133 43.3783C30.0666 43.4991 30.2183 43.6217 30.3685 43.7462C30.5187 43.8706 30.6674 43.9969 30.8146 44.125C30.9618 44.2531 31.1073 44.383 31.2512 44.5147C31.3951 44.6463 31.5375 44.7797 31.6781 44.9148C31.8188 45.05 31.9579 45.1869 32.0953 45.3254C32.2326 45.4639 32.3683 45.6041 32.5022 45.746C32.6361 45.8878 32.7683 46.0313 32.8987 46.1764C33.0291 46.3215 33.1578 46.4682 33.2846 46.6164C33.4114 46.7647 33.5364 46.9144 33.6596 47.0657C33.7827 47.217 33.904 47.3697 34.0235 47.5239C34.1429 47.6783 34.2605 47.834 34.3761 47.991C34.4917 48.1482 34.6054 48.3067 34.7172 48.4666C34.8289 48.6266 34.9387 48.7878 35.0465 48.9504C37.7906 53.0736 39.0336 57.5526 39.049 62.4861C39.0508 63.0885 39.1256 64.4109 39.0069 64.9407C38.9664 65.1216 38.8828 65.3547 38.7115 65.4519C38.5245 65.558 38.2913 65.5944 38.0796 65.6073C37.6109 65.636 37.1296 65.6141 36.6597 65.6137L33.9443 65.6104C33.203 65.6096 30.0181 65.6992 29.5191 65.5511C29.2989 65.4856 29.1288 65.3844 29.0404 65.1657C28.8603 64.7202 28.9551 62.9488 28.9554 62.359C28.956 59.9628 28.4331 57.6909 27.2924 55.5774C27.1705 55.3413 27.0313 55.1091 26.8908 54.8835C24.8716 51.6403 21.8337 49.557 18.1335 48.6932C18.1509 50.141 18.1363 51.5908 18.1374 53.0389C18.1378 53.567 18.2034 54.6492 18.108 55.1353C18.0621 55.3692 17.9376 55.5579 17.7354 55.6858C17.5647 55.7938 17.3498 55.814 17.1562 55.7648C16.971 55.7177 16.8079 55.5942 16.6589 55.4789C15.8598 54.8604 15.0938 54.1837 14.3149 53.5388L9.95855 49.945L5.36577 46.1491C4.53243 45.462 3.67057 44.7931 2.86011 44.0799C2.72102 43.9574 2.52665 43.7947 2.44139 43.6297C2.35894 43.4704 2.38497 43.2012 2.44732 43.0383C2.51325 42.8661 2.63229 42.7406 2.76779 42.6202C3.81589 41.6892 4.93363 40.8185 6.01673 39.9276L11.5261 35.3793L14.9928 32.521C15.5348 32.0745 16.5625 31.0941 17.1184 30.8584Z" fill="white"/>
<path d="M33.9599 2.40039C34.0619 2.40924 34.1714 2.42201 34.2699 2.45042C34.459 2.50503 34.6614 2.73727 34.7897 2.88367C35.7199 3.94565 36.5949 5.0693 37.4937 6.15929L42.6329 12.3803L45.0789 15.3423C45.5112 15.8641 46.0543 16.4046 46.3858 16.9959C46.4902 17.1823 46.5118 17.3512 46.4489 17.5571C46.3826 17.7734 46.2189 17.9445 46.019 18.045C45.8945 18.1076 45.7668 18.1425 45.628 18.1525C45.2364 18.1806 44.8355 18.164 44.4429 18.1643L42.3823 18.1649L40.4471 18.1671C40.074 18.1709 39.6921 18.1958 39.3198 18.1784C39.2307 18.1741 39.1449 18.155 39.0604 18.1271C39.0263 19.0049 39.0488 19.8902 39.049 20.7687L39.0487 25.3878L39.0486 29.243C39.0487 30.007 39.0237 30.7811 39.069 31.5437C39.4786 31.1581 40.0821 30.8634 40.5743 30.5915C40.93 30.3949 41.2909 30.2083 41.6569 30.0317C42.023 29.8551 42.3937 29.6887 42.7689 29.5326C43.1442 29.3766 43.5235 29.2311 43.9069 29.0961C44.2902 28.9611 44.677 28.8367 45.0672 28.7231C45.4574 28.6095 45.8505 28.5069 46.2465 28.4151C46.6424 28.3233 47.0405 28.2426 47.4409 28.1729C47.8413 28.1032 48.2434 28.0447 48.6471 27.9973C49.0506 27.9499 49.4553 27.9138 49.861 27.8888C49.8032 27.0348 49.8615 25.9849 49.8611 25.1078C49.8604 23.8408 49.8118 22.5552 49.864 21.2902C49.8755 21.0143 49.9335 20.7467 50.1522 20.5573C50.303 20.4266 50.5107 20.366 50.7083 20.3858C50.935 20.4085 51.0983 20.5194 51.2742 20.6528C52.3632 21.4772 53.3979 22.3962 54.4518 23.2664L60.7719 28.4869L63.9209 31.0907C64.4046 31.4891 65.0251 31.887 65.4222 32.3688C65.5593 32.5351 65.6152 32.7219 65.5921 32.9369C65.5703 33.1399 65.4773 33.3044 65.3346 33.4473C64.9749 33.8076 64.5275 34.1262 64.1335 34.4513L61.7328 36.4317L54.0502 42.7739C53.644 43.1692 53.1515 43.5214 52.7135 43.8838C52.1804 44.3252 51.6448 44.835 51.0636 45.2098C50.9341 45.2934 50.7946 45.3316 50.6478 45.3715C50.4444 45.3138 50.2263 45.2477 50.0729 45.0945C49.9315 44.9534 49.9028 44.7686 49.8778 44.5787C49.7938 43.9399 49.8581 42.9974 49.8585 42.3328C49.8595 40.8985 49.8458 39.4628 49.8627 38.0286C46.6124 38.4705 43.824 39.9159 41.7493 42.485C41.6559 42.6008 41.5646 42.7182 41.4755 42.8374C41.3864 42.9565 41.2995 43.0772 41.2149 43.1994C41.1301 43.3218 41.0477 43.4456 40.9676 43.5709C40.8875 43.6963 40.8097 43.823 40.7342 43.9512C40.6587 44.0794 40.5856 44.2089 40.515 44.3398C40.4442 44.4706 40.3759 44.6028 40.31 44.7362C40.2442 44.8696 40.1808 45.0041 40.1198 45.1398C40.0588 45.2755 40.0004 45.4122 39.9445 45.5501C39.8886 45.6879 39.8352 45.8268 39.7844 45.9666C39.7335 46.1064 39.6853 46.2471 39.6397 46.3887C39.594 46.5302 39.551 46.6726 39.5106 46.8158C39.4702 46.959 39.4324 47.1028 39.3972 47.2473C39.3621 47.3919 39.3296 47.537 39.2997 47.6828C39.27 47.8285 39.2428 47.9748 39.2183 48.1215C39.1939 48.2682 39.1721 48.4153 39.1531 48.5629C39.1341 48.7104 39.1177 48.8583 39.1041 49.0064C39.0353 49.7492 39.0479 50.4958 39.0474 51.241L39.0453 52.6071C39.0441 52.7581 39.0111 52.9375 39.0324 53.0843C39.0336 53.0928 39.0358 53.101 39.0377 53.1095L38.9905 53.1252L39.0093 53.1523C38.869 52.9639 38.6313 52.2393 38.509 51.9652C38.2087 51.287 37.8796 50.623 37.5215 49.9734C37.3941 49.7418 37.2631 49.5122 37.1286 49.2846C36.9941 49.0571 36.8562 48.8317 36.7148 48.6084C36.5733 48.3851 36.4285 48.164 36.2802 47.9451C36.132 47.7262 35.9804 47.5097 35.8255 47.2955C35.6706 47.0813 35.5124 46.8696 35.3509 46.6603C35.1895 46.451 35.0249 46.2442 34.8572 46.0399C34.6894 45.8357 34.5185 45.6341 34.3445 45.4351C34.1704 45.2361 33.9934 45.0399 33.8134 44.8463C33.6333 44.6528 33.4503 44.4621 33.2643 44.2742C33.0784 44.0863 32.8896 43.9013 32.698 43.7193C32.5064 43.5372 32.312 43.3581 32.1148 43.182C31.9177 43.0059 31.7179 42.8329 31.5155 42.663C31.313 42.4931 31.1079 42.3263 30.9003 42.1627C30.6926 41.9991 30.4826 41.8387 30.2701 41.6815C30.0575 41.5244 29.8426 41.3705 29.6253 41.22C29.408 41.0695 29.1884 40.9223 28.9667 40.7785C28.9101 39.9251 28.9523 39.0472 28.9531 38.1913L28.9546 33.4356L28.9516 18.1622C28.5507 18.1894 28.1411 18.1685 27.7388 18.1675L25.5785 18.1651L23.6941 18.1681C23.3041 18.17 22.903 18.1899 22.5141 18.1603C22.2872 18.143 22.0243 18.115 21.8345 17.9806C21.6653 17.8608 21.5578 17.6836 21.5248 17.4795C21.4799 17.2017 21.575 17.0254 21.7289 16.8044C21.9863 16.4347 22.2926 16.0917 22.5792 15.7444L24.039 13.9774L28.6333 8.41664L31.8537 4.5143C32.3062 3.96501 32.9655 3.06935 33.46 2.59666C33.5993 2.46345 33.7775 2.43248 33.9599 2.40039Z" fill="white"/>
</svg>
