<svg width="68" height="68" viewBox="0 0 68 68" fill="none" xmlns="http://www.w3.org/2000/svg">
<g clip-path="url(#clip0_299_1092)">
<path d="M25.5 11.3333C25.5 5.0745 35.0143 0 46.75 0C58.4857 0 68 5.0745 68 11.3333C68 17.5922 58.4857 22.6667 46.75 22.6667C35.0143 22.6667 25.5 17.5922 25.5 11.3333ZM46.75 28.3333C43.8402 28.3333 41.0805 28.0075 38.5588 27.4408C34.7083 24.5537 28.3985 22.6667 21.25 22.6667C9.51433 22.6667 0 27.7412 0 34C0 40.2588 9.51433 45.3333 21.25 45.3333C32.9857 45.3333 42.5 40.2588 42.5 34C42.5 33.9178 42.4802 33.8385 42.4773 33.7563H42.5V39.6667C42.5 45.9255 32.9857 51 21.25 51C9.51433 51 0 45.9255 0 39.6667V45.3333C0 51.5922 9.51433 56.6667 21.25 56.6667C32.9857 56.6667 42.5 51.5922 42.5 45.3333V51C42.5 57.2588 32.9857 62.3333 21.25 62.3333C9.51433 62.3333 0 57.2588 0 51V56.6667C0 62.9255 9.51433 68 21.25 68C32.9857 68 42.5 62.9255 42.5 56.6667V56.44C43.8742 56.5873 45.2937 56.6667 46.75 56.6667C58.4857 56.6667 68 51.5922 68 45.3333V39.6667C68 45.6705 59.2393 50.5722 48.1667 50.9632V45.2965C59.2393 44.9055 68 40.0067 68 34V28.3333C68 34.3372 59.2393 39.2388 48.1667 39.6298V33.9632C59.2393 33.5722 68 28.6733 68 22.6667V17C68 23.2588 58.4857 28.3333 46.75 28.3333Z" fill="#279376"/>
</g>
<defs>
<clipPath id="clip0_299_1092">
<rect width="68" height="68" fill="white"/>
</clipPath>
</defs>
</svg>
