<svg width="173" height="24" viewBox="0 0 173 24" fill="none" xmlns="http://www.w3.org/2000/svg">
<path d="M59.1211 11.584C59.1211 9.13067 59.7078 7.008 60.8811 5.216C62.0544 3.40267 63.5264 2.08 65.2971 1.248C67.0678 0.416 68.9771 0 71.0251 0C73.4998 0 75.7398 0.501333 77.7451 1.504V4.192C76.0171 3.104 73.9051 2.56 71.4091 2.56C70.1931 2.56 69.0304 2.74133 67.9211 3.104C66.8118 3.44533 65.7878 3.968 64.8491 4.672C63.9318 5.35467 63.1958 6.29333 62.6411 7.488C62.1078 8.68267 61.8411 10.048 61.8411 11.584C61.8411 13.2053 62.1184 14.624 62.6731 15.84C63.2278 17.0347 63.9744 17.9733 64.9131 18.656C65.8518 19.3173 66.8651 19.808 67.9531 20.128C69.0624 20.448 70.2358 20.608 71.4731 20.608C73.0731 20.608 74.4491 20.3307 75.6011 19.776V10.88H78.2891V21.664C76.1131 22.6667 73.7771 23.168 71.2811 23.168C69.6811 23.168 68.1771 22.9547 66.7691 22.528C65.3611 22.1013 64.0704 21.4507 62.8971 20.576C61.7451 19.68 60.8278 18.464 60.1451 16.928C59.4624 15.392 59.1211 13.6107 59.1211 11.584Z" fill="white"/>
<path d="M85.8436 22.784H83.1556V0.383999H91.9236C93.3956 0.383999 94.7289 0.586666 95.9236 0.991999C97.1183 1.376 98.1423 2.10133 98.9956 3.168C99.8703 4.21333 100.308 5.54667 100.308 7.168C100.308 9.088 99.7529 10.5813 98.6436 11.648C97.5343 12.7147 96.0943 13.408 94.3236 13.728L101.908 22.784H98.5476L91.2196 13.952H85.8436V22.784ZM85.8436 2.944V11.392H92.0516C93.6303 11.392 94.9423 11.072 95.9876 10.432C97.0543 9.77067 97.5876 8.68267 97.5876 7.168C97.5876 5.632 97.0543 4.544 95.9876 3.904C94.9423 3.264 93.6303 2.944 92.0516 2.944H85.8436Z" fill="white"/>
<path d="M104.419 15.84C103.928 14.4747 103.683 13.056 103.683 11.584C103.683 10.112 103.928 8.69333 104.419 7.328C104.931 5.96267 105.656 4.736 106.595 3.648C107.534 2.53867 108.76 1.65333 110.275 0.991999C111.79 0.330666 113.496 0 115.395 0C117.294 0 119 0.330666 120.515 0.991999C122.03 1.65333 123.256 2.53867 124.195 3.648C125.134 4.736 125.848 5.96267 126.339 7.328C126.851 8.69333 127.107 10.112 127.107 11.584C127.107 13.056 126.851 14.4747 126.339 15.84C125.848 17.2053 125.134 18.4427 124.195 19.552C123.256 20.64 122.03 21.5147 120.515 22.176C119 22.8373 117.294 23.168 115.395 23.168C113.496 23.168 111.79 22.8373 110.275 22.176C108.76 21.5147 107.534 20.64 106.595 19.552C105.656 18.4427 104.931 17.2053 104.419 15.84ZM123.811 14.944C124.195 13.8773 124.387 12.7573 124.387 11.584C124.387 10.4107 124.195 9.29067 123.811 8.224C123.448 7.15733 122.904 6.19733 122.179 5.344C121.475 4.49067 120.536 3.81867 119.363 3.328C118.19 2.816 116.867 2.56 115.395 2.56C113.923 2.56 112.6 2.816 111.427 3.328C110.254 3.81867 109.304 4.49067 108.579 5.344C107.875 6.19733 107.331 7.15733 106.947 8.224C106.584 9.29067 106.403 10.4107 106.403 11.584C106.403 12.7573 106.584 13.8773 106.947 14.944C107.331 16.0107 107.875 16.9707 108.579 17.824C109.304 18.6773 110.254 19.36 111.427 19.872C112.6 20.3627 113.923 20.608 115.395 20.608C116.867 20.608 118.19 20.3627 119.363 19.872C120.536 19.36 121.475 18.6773 122.179 17.824C122.904 16.9707 123.448 16.0107 123.811 14.944Z" fill="white"/>
<path d="M147.275 0.383999H149.963V14.592C149.963 16.128 149.707 17.472 149.195 18.624C148.705 19.7547 148.011 20.6507 147.115 21.312C146.241 21.952 145.259 22.4213 144.171 22.72C143.105 23.0187 141.921 23.168 140.619 23.168C137.867 23.168 135.617 22.4853 133.867 21.12C132.118 19.7547 131.243 17.5787 131.243 14.592V0.383999H133.931V14.464C133.931 18.56 136.161 20.608 140.619 20.608C145.057 20.608 147.275 18.56 147.275 14.464V0.383999Z" fill="white"/>
<path d="M155.593 0.383999H163.241C169.577 0.383999 172.745 2.79467 172.745 7.616C172.745 12.4373 169.577 14.848 163.241 14.848H158.281V22.784H155.593V0.383999ZM170.025 7.616C170.025 6.69867 169.854 5.93067 169.513 5.312C169.172 4.672 168.681 4.192 168.041 3.872C167.422 3.53067 166.74 3.296 165.993 3.168C165.246 3.01867 164.372 2.944 163.369 2.944H158.281V12.288H163.369C165.438 12.288 167.06 11.9467 168.233 11.264C169.428 10.5813 170.025 9.36533 170.025 7.616Z" fill="white"/>
<path d="M0 0.383789H7.36C11.1787 0.383789 14.1013 1.41846 16.128 3.48779C18.176 5.53579 19.2 8.23446 19.2 11.5838C19.2 14.9331 18.176 17.6425 16.128 19.7118C14.1013 21.7598 11.1787 22.7838 7.36 22.7838H0V0.383789ZM14.144 17.9518C15.7013 16.4371 16.48 14.3145 16.48 11.5838C16.48 8.85312 15.7013 6.73046 14.144 5.21579C12.608 3.70112 10.3467 2.94379 7.36 2.94379H2.688V20.2238H7.36C10.3467 20.2238 12.608 19.4665 14.144 17.9518Z" fill="url(#paint0_linear_249_2121)"/>
<path d="M44.425 0.383789H46.729V22.7838H44.041V5.47179L36.009 17.5038H34.345L26.313 5.47179V22.7838H23.625V0.383789H25.929L35.177 14.2078L44.425 0.383789Z" fill="url(#paint1_linear_249_2121)"/>
<defs>
<linearGradient id="paint0_linear_249_2121" x1="46.729" y1="11.5838" x2="4.0854e-07" y2="11.5838" gradientUnits="userSpaceOnUse">
<stop stop-color="#E16B5F"/>
<stop offset="1" stop-color="#F3A89E"/>
</linearGradient>
<linearGradient id="paint1_linear_249_2121" x1="46.729" y1="11.5838" x2="4.0854e-07" y2="11.5838" gradientUnits="userSpaceOnUse">
<stop stop-color="#E16B5F"/>
<stop offset="1" stop-color="#F3A89E"/>
</linearGradient>
</defs>
</svg>
