<svg width="181" height="40" viewBox="0 0 181 40" fill="none" xmlns="http://www.w3.org/2000/svg">
<mask id="path-1-inside-1_248_911" fill="white">
<path d="M0.5 0H180.5V39.168H0.5V0Z"/>
</mask>
<path d="M180.5 38.168H0.5V40.168H180.5V38.168Z" fill="#2B2B2B" mask="url(#path-1-inside-1_248_911)"/>
<path d="M59.6211 11.584C59.6211 9.13067 60.2078 7.008 61.3811 5.216C62.5544 3.40267 64.0264 2.08 65.7971 1.248C67.5678 0.416 69.4771 0 71.5251 0C73.9998 0 76.2398 0.501333 78.2451 1.504V4.192C76.5171 3.104 74.4051 2.56 71.9091 2.56C70.6931 2.56 69.5304 2.74133 68.4211 3.104C67.3118 3.44533 66.2878 3.968 65.3491 4.672C64.4318 5.35467 63.6958 6.29333 63.1411 7.488C62.6078 8.68267 62.3411 10.048 62.3411 11.584C62.3411 13.2053 62.6184 14.624 63.1731 15.84C63.7278 17.0347 64.4744 17.9733 65.4131 18.656C66.3518 19.3173 67.3651 19.808 68.4531 20.128C69.5624 20.448 70.7358 20.608 71.9731 20.608C73.5731 20.608 74.9491 20.3307 76.1011 19.776V10.88H78.7891V21.664C76.6131 22.6667 74.2771 23.168 71.7811 23.168C70.1811 23.168 68.6771 22.9547 67.2691 22.528C65.8611 22.1013 64.5704 21.4507 63.3971 20.576C62.2451 19.68 61.3278 18.464 60.6451 16.928C59.9624 15.392 59.6211 13.6107 59.6211 11.584Z" fill="white"/>
<path d="M86.3436 22.784H83.6556V0.383999H92.4236C93.8956 0.383999 95.2289 0.586666 96.4236 0.991999C97.6183 1.376 98.6423 2.10133 99.4956 3.168C100.37 4.21333 100.808 5.54667 100.808 7.168C100.808 9.088 100.253 10.5813 99.1436 11.648C98.0343 12.7147 96.5943 13.408 94.8236 13.728L102.408 22.784H99.0476L91.7196 13.952H86.3436V22.784ZM86.3436 2.944V11.392H92.5516C94.1303 11.392 95.4423 11.072 96.4876 10.432C97.5543 9.77067 98.0876 8.68267 98.0876 7.168C98.0876 5.632 97.5543 4.544 96.4876 3.904C95.4423 3.264 94.1303 2.944 92.5516 2.944H86.3436Z" fill="white"/>
<path d="M104.919 15.84C104.428 14.4747 104.183 13.056 104.183 11.584C104.183 10.112 104.428 8.69333 104.919 7.328C105.431 5.96267 106.156 4.736 107.095 3.648C108.034 2.53867 109.26 1.65333 110.775 0.991999C112.29 0.330666 113.996 0 115.895 0C117.794 0 119.5 0.330666 121.015 0.991999C122.53 1.65333 123.756 2.53867 124.695 3.648C125.634 4.736 126.348 5.96267 126.839 7.328C127.351 8.69333 127.607 10.112 127.607 11.584C127.607 13.056 127.351 14.4747 126.839 15.84C126.348 17.2053 125.634 18.4427 124.695 19.552C123.756 20.64 122.53 21.5147 121.015 22.176C119.5 22.8373 117.794 23.168 115.895 23.168C113.996 23.168 112.29 22.8373 110.775 22.176C109.26 21.5147 108.034 20.64 107.095 19.552C106.156 18.4427 105.431 17.2053 104.919 15.84ZM124.311 14.944C124.695 13.8773 124.887 12.7573 124.887 11.584C124.887 10.4107 124.695 9.29067 124.311 8.224C123.948 7.15733 123.404 6.19733 122.679 5.344C121.975 4.49067 121.036 3.81867 119.863 3.328C118.69 2.816 117.367 2.56 115.895 2.56C114.423 2.56 113.1 2.816 111.927 3.328C110.754 3.81867 109.804 4.49067 109.079 5.344C108.375 6.19733 107.831 7.15733 107.447 8.224C107.084 9.29067 106.903 10.4107 106.903 11.584C106.903 12.7573 107.084 13.8773 107.447 14.944C107.831 16.0107 108.375 16.9707 109.079 17.824C109.804 18.6773 110.754 19.36 111.927 19.872C113.1 20.3627 114.423 20.608 115.895 20.608C117.367 20.608 118.69 20.3627 119.863 19.872C121.036 19.36 121.975 18.6773 122.679 17.824C123.404 16.9707 123.948 16.0107 124.311 14.944Z" fill="white"/>
<path d="M147.775 0.383999H150.463V14.592C150.463 16.128 150.207 17.472 149.695 18.624C149.205 19.7547 148.511 20.6507 147.615 21.312C146.741 21.952 145.759 22.4213 144.671 22.72C143.605 23.0187 142.421 23.168 141.119 23.168C138.367 23.168 136.117 22.4853 134.367 21.12C132.618 19.7547 131.743 17.5787 131.743 14.592V0.383999H134.431V14.464C134.431 18.56 136.661 20.608 141.119 20.608C145.557 20.608 147.775 18.56 147.775 14.464V0.383999Z" fill="white"/>
<path d="M156.093 0.383999H163.741C170.077 0.383999 173.245 2.79467 173.245 7.616C173.245 12.4373 170.077 14.848 163.741 14.848H158.781V22.784H156.093V0.383999ZM170.525 7.616C170.525 6.69867 170.354 5.93067 170.013 5.312C169.672 4.672 169.181 4.192 168.541 3.872C167.922 3.53067 167.24 3.296 166.493 3.168C165.746 3.01867 164.872 2.944 163.869 2.944H158.781V12.288H163.869C165.938 12.288 167.56 11.9467 168.733 11.264C169.928 10.5813 170.525 9.36533 170.525 7.616Z" fill="white"/>
<path d="M0.5 0.383789H7.86C11.6787 0.383789 14.6013 1.41846 16.628 3.48779C18.676 5.53579 19.7 8.23446 19.7 11.5838C19.7 14.9331 18.676 17.6425 16.628 19.7118C14.6013 21.7598 11.6787 22.7838 7.86 22.7838H0.5V0.383789ZM14.644 17.9518C16.2013 16.4371 16.98 14.3145 16.98 11.5838C16.98 8.85312 16.2013 6.73046 14.644 5.21579C13.108 3.70112 10.8467 2.94379 7.86 2.94379H3.188V20.2238H7.86C10.8467 20.2238 13.108 19.4665 14.644 17.9518Z" fill="url(#paint0_linear_248_911)"/>
<path d="M44.925 0.383789H47.229V22.7838H44.541V5.47179L36.509 17.5038H34.845L26.813 5.47179V22.7838H24.125V0.383789H26.429L35.677 14.2078L44.925 0.383789Z" fill="url(#paint1_linear_248_911)"/>
<defs>
<linearGradient id="paint0_linear_248_911" x1="47.229" y1="11.5838" x2="0.5" y2="11.5838" gradientUnits="userSpaceOnUse">
<stop stop-color="#E16B5F"/>
<stop offset="1" stop-color="#F3A89E"/>
</linearGradient>
<linearGradient id="paint1_linear_248_911" x1="47.229" y1="11.5838" x2="0.5" y2="11.5838" gradientUnits="userSpaceOnUse">
<stop stop-color="#E16B5F"/>
<stop offset="1" stop-color="#F3A89E"/>
</linearGradient>
</defs>
</svg>
