<svg width="44" height="44" viewBox="0 0 44 44" fill="none" xmlns="http://www.w3.org/2000/svg">
<path fill-rule="evenodd" clip-rule="evenodd" d="M0 22.0119C0 9.8673 9.87088 0 22.0149 0C34.1315 0 44 9.8673 44 22.0119C44 34.1315 34.1315 44 22.0149 44C9.87088 44 0 34.1315 0 22.0119ZM1.09988 22.0119C1.09988 33.5252 10.482 42.8995 22.0149 42.8995C33.5246 42.8995 42.9001 33.5228 42.9001 22.0119C42.9001 10.4796 33.5282 1.10048 22.0149 1.10048C10.4784 1.10048 1.09988 10.4748 1.09988 22.0119ZM28.2573 8.18077C24.7757 6.62793 18.288 6.47396 12.9736 8.84082C13.3985 8.53646 13.8419 8.26194 14.302 8.01606C14.5825 7.86567 14.8696 7.72602 15.1614 7.59831C16.8348 6.8189 19.5335 6.06337 22.897 6.06337C23.0557 6.06337 23.2145 6.06456 23.3738 6.06814C26.2497 6.11947 29.6592 7.11252 31.7432 9.17383C32.0977 9.6059 32.303 10.0368 32.3787 10.3698C34.0324 11.2101 34.998 11.9978 35.531 12.9145C35.7619 13.3967 35.8377 13.904 35.7339 14.49C36.2764 14.7944 36.7466 15.2121 37.1125 15.7158C37.3375 16.0966 37.5159 16.5251 37.5684 16.913C37.643 17.4179 37.6931 18.0027 37.159 18.6914C37.7188 18.9719 38.1748 19.7573 38.2297 20.0915C38.5095 21.334 37.6931 22.5562 36.6517 23.5003C35.8723 24.1807 34.4944 24.9446 33.0304 25.5545C32.1985 25.9006 31.3385 26.1978 30.5454 26.4007C27.4893 27.1742 24.6706 27.6301 22.2035 28.0299C21.1842 28.1959 20.2246 28.351 19.333 28.5145C20.1458 28.7091 21.1287 28.9418 22.4237 29.0982C23.3153 29.2068 24.3549 29.2784 25.5897 29.2784C32.072 29.2784 37.7958 26.2217 37.7958 26.2217C37.7958 26.2217 37.6699 26.606 37.5404 26.9629C33.4213 29.4551 26.8865 30.4971 24.0864 30.3694C21.263 30.2405 18.8734 29.8096 16.5328 29.0958C15.8179 29.2975 15.1137 29.535 14.4232 29.8096C17.986 31.4376 20.6799 31.7957 23.7074 32.0225C26.8077 32.254 31.9485 31.5128 36.268 29.9397C36.1713 30.0375 36.0973 30.1581 36.0251 30.2763C35.9457 30.4052 35.8676 30.5329 35.7619 30.626C33.5484 31.7957 28.8714 32.9666 26.5052 33.068C24.1634 33.1707 21.3155 33.068 18.8221 32.6085C16.6856 32.1788 14.9281 31.5128 13.0983 30.7024C12.7707 30.953 12.6179 31.2622 12.5385 31.619C19.6898 35.3585 26.3494 35.4325 33.9578 33.068L33.2686 33.7305C24.9004 37.1405 18.3638 35.8156 13.3 33.3724C13.1252 33.296 12.9211 33.2184 12.7707 33.1182C13.2547 33.9334 17.1171 36.7574 21.4414 37.1143C23.005 37.2479 24.75 37.1704 26.3673 36.9424C27.8306 36.7359 29.1901 36.4053 30.2166 35.9959L28.9454 36.6559C27.9016 37.1656 25.1302 38.3389 21.2618 38.0822C16.1002 37.7242 13.1998 35.4337 11.9017 34.2401C11.2918 33.6768 11.0143 33.043 10.8347 32.254C9.66379 31.6429 8.92676 31.0043 8.31923 30.0387C7.96235 29.5052 8.03575 28.8702 8.11154 28.3319L8.27029 27.8796C7.70692 27.4678 7.12267 27.0357 6.8941 26.606C6.38205 25.6893 6.69238 24.8992 7.04688 24.2881C6.93408 24.158 6.82487 24.0279 6.7258 23.8978C6.55512 23.6722 6.41428 23.4466 6.33729 23.221C6.18273 22.814 6.15885 22.4022 6.20481 21.9463C6.30865 21.1848 6.71566 20.4746 7.24978 19.8611C8.36697 18.5625 10.1514 17.5456 13.1741 16.5537C15.4789 15.7839 16.7166 15.5177 18.1955 15.2002C18.6281 15.1071 19.0811 15.0104 19.5872 14.8946C22.2065 14.2883 25.3354 14.0866 27.953 13.1699C20.653 11.8988 13.075 13.0673 6.8941 17.3128L7.29991 16.1181C12.8441 12.5063 18.9749 10.3698 29.3512 12.1769C29.911 11.8451 30.241 11.5132 30.3962 10.8532C27.8002 9.91265 24.9786 9.58203 21.3423 9.63097C18.0851 9.73481 12.2073 10.9511 9.05865 12.8154L10.0207 11.6171C12.2073 10.3149 17.9299 8.61285 22.2322 8.53646C25.2561 8.46126 26.8077 8.63791 30.4207 9.6059C30.0871 8.99837 29.3512 8.69043 28.2573 8.18077ZM33.8015 13.4755C33.7024 12.7629 32.8884 12.0754 32.1746 11.6171C32.1084 11.8486 31.9264 12.1112 31.7366 12.344C31.634 12.4705 31.5289 12.5875 31.4388 12.6865C32.2272 12.8918 33.0412 13.1926 33.8015 13.4755ZM30.3204 13.7023C29.8084 14.1105 29.2265 14.465 28.3588 14.7992C29.7863 15.0486 30.8545 15.4568 32.072 15.7898C32.0845 15.7958 32.0989 15.7982 32.1126 15.797C32.3775 15.797 33.2489 14.9913 33.3993 14.7705C32.9278 14.564 32.3984 14.3563 31.8309 14.1618C31.3505 13.9971 30.8432 13.8407 30.3204 13.7023ZM35.7619 17.4429C36.0908 16.8067 35.8879 16.3997 35.2033 15.8137C34.9223 16.1479 34.6167 16.4248 34.2867 16.679C34.5266 16.7936 34.7569 16.8927 34.9795 16.9977C35.2511 17.1254 35.5113 17.2615 35.7619 17.4429ZM24.3185 16.0966C20.961 16.5036 17.2454 17.2126 14.0675 18.1555L13.898 18.2068C12.3207 18.6866 6.35639 20.4961 8.16764 22.9907L8.18913 22.9668C8.3622 22.771 9.61963 21.3423 13.5823 20.1905C16.3699 19.3717 19.2279 18.8513 22.1307 18.3226C24.7381 17.8475 27.3818 17.3653 30.0417 16.6552C28.4584 16.2338 27.3794 15.982 26.0295 15.9808C25.5133 15.9808 24.9577 16.0178 24.3185 16.0966ZM27.9548 19.1748C26.1495 19.6319 21.7726 20.2681 17.0693 21.285C15.5929 21.6157 11.5473 22.5562 9.56353 24.2368C9.88162 24.4993 10.1347 24.645 10.4056 24.787C10.6103 24.8944 10.8257 25.0007 11.0877 25.1534C11.9017 24.6175 13.0225 24.109 14.6786 23.6746C17.2907 22.9811 19.321 22.6469 21.621 22.2686L22.3079 22.1552C24.8771 21.7661 29.7338 20.7491 32.4032 19.7823C33.0173 19.5747 33.5926 19.3168 34.0826 19.0173C34.3052 18.8812 34.5099 18.7368 34.6925 18.5852C34.514 18.3847 32.7846 17.5456 32.7332 17.6232C31.6686 18.1304 30.142 18.6377 27.9548 19.1748ZM29.7606 22.635C24.3185 24.109 20.3732 24.3096 15.8961 25.41C15.3804 25.5401 14.857 25.6905 14.3456 25.8624C13.9732 25.9865 13.6068 26.1226 13.2547 26.2718C14.0908 26.7051 15.0074 27.0882 15.9217 27.4451C17.7527 26.9104 18.6216 26.6812 21.2618 26.2491L22.7281 25.9854C24.1264 25.7299 26.079 25.3683 27.6206 25.0556C31.6686 24.1866 37.5941 22.3032 36.0174 19.8611C35.9386 19.928 35.8598 19.9888 35.781 20.0497C35.6814 20.1285 35.5823 20.2072 35.4832 20.2944C34.2867 21.2051 32.3787 21.9463 29.7606 22.635ZM9.10639 26.7051C9.28244 26.5284 9.5134 26.3745 9.69184 26.2217C9.28244 26.0104 9.00195 25.8314 8.68028 25.6261L8.49528 25.5079C8.29118 25.971 8.70177 26.4735 9.10639 26.7051ZM13.8353 28.1815C13.0983 27.8509 12.3111 27.5227 11.5473 27.1658C11.1916 27.395 10.8627 27.6217 10.6073 27.8509C11.2172 28.2078 11.8039 28.536 12.415 28.8714C12.8644 28.5945 13.34 28.363 13.8353 28.1815ZM10.8627 30.5496C10.9361 30.293 11.0656 30.0913 11.2441 29.837C11.043 29.7296 10.8424 29.6234 10.6419 29.5124C10.4092 29.3823 10.1776 29.2474 9.94607 29.0958C9.91802 29.5816 10.226 30.0137 10.8627 30.5496Z" fill="white"/>
</svg>
