<svg width="189" height="34" viewBox="0 0 189 34" fill="none" xmlns="http://www.w3.org/2000/svg">
<mask id="path-1-inside-1_246_1901" fill="white">
<path d="M0 0H188.746V34H0V0Z"/>
</mask>
<path d="M187.746 0V34H189.746V0H187.746Z" fill="#191414" mask="url(#path-1-inside-1_246_1901)"/>
<path d="M59.1211 17C59.1211 14.5467 59.7078 12.424 60.8811 10.632C62.0544 8.81868 63.5264 7.49602 65.2971 6.66401C67.0678 5.83202 68.9771 5.41602 71.0251 5.41602C73.4998 5.41602 75.7398 5.91735 77.7451 6.92002V9.60802C76.0171 8.52002 73.9051 7.97602 71.4091 7.97602C70.1931 7.97602 69.0304 8.15735 67.9211 8.52002C66.8118 8.86135 65.7878 9.38401 64.8491 10.088C63.9318 10.7707 63.1958 11.7093 62.6411 12.904C62.1078 14.0987 61.8411 15.464 61.8411 17C61.8411 18.6213 62.1184 20.04 62.6731 21.256C63.2278 22.4507 63.9744 23.3893 64.9131 24.072C65.8518 24.7333 66.8651 25.224 67.9531 25.544C69.0624 25.864 70.2358 26.024 71.4731 26.024C73.0731 26.024 74.4491 25.7467 75.6011 25.192V16.296H78.2891V27.08C76.1131 28.0827 73.7771 28.584 71.2811 28.584C69.6811 28.584 68.1771 28.3707 66.7691 27.944C65.3611 27.5173 64.0704 26.8667 62.8971 25.992C61.7451 25.096 60.8278 23.88 60.1451 22.344C59.4624 20.808 59.1211 19.0267 59.1211 17Z" fill="#191414"/>
<path d="M85.8436 28.2H83.1556V5.80001H91.9236C93.3956 5.80001 94.7289 6.00268 95.9236 6.40801C97.1183 6.79201 98.1423 7.51735 98.9956 8.58401C99.8703 9.62935 100.308 10.9627 100.308 12.584C100.308 14.504 99.7529 15.9973 98.6436 17.064C97.5343 18.1307 96.0943 18.824 94.3236 19.144L101.908 28.2H98.5476L91.2196 19.368H85.8436V28.2ZM85.8436 8.36002V16.808H92.0516C93.6303 16.808 94.9423 16.488 95.9876 15.848C97.0543 15.1867 97.5876 14.0987 97.5876 12.584C97.5876 11.048 97.0543 9.96002 95.9876 9.32001C94.9423 8.68002 93.6303 8.36002 92.0516 8.36002H85.8436Z" fill="#191414"/>
<path d="M104.419 21.256C103.928 19.8907 103.683 18.472 103.683 17C103.683 15.528 103.928 14.1093 104.419 12.744C104.931 11.3787 105.656 10.152 106.595 9.06401C107.534 7.95468 108.76 7.06935 110.275 6.40801C111.79 5.74668 113.496 5.41602 115.395 5.41602C117.294 5.41602 119 5.74668 120.515 6.40801C122.03 7.06935 123.256 7.95468 124.195 9.06401C125.134 10.152 125.848 11.3787 126.339 12.744C126.851 14.1093 127.107 15.528 127.107 17C127.107 18.472 126.851 19.8907 126.339 21.256C125.848 22.6213 125.134 23.8587 124.195 24.968C123.256 26.056 122.03 26.9307 120.515 27.592C119 28.2533 117.294 28.584 115.395 28.584C113.496 28.584 111.79 28.2533 110.275 27.592C108.76 26.9307 107.534 26.056 106.595 24.968C105.656 23.8587 104.931 22.6213 104.419 21.256ZM123.811 20.36C124.195 19.2933 124.387 18.1733 124.387 17C124.387 15.8267 124.195 14.7067 123.811 13.64C123.448 12.5733 122.904 11.6133 122.179 10.76C121.475 9.90668 120.536 9.23468 119.363 8.74401C118.19 8.23201 116.867 7.97602 115.395 7.97602C113.923 7.97602 112.6 8.23201 111.427 8.74401C110.254 9.23468 109.304 9.90668 108.579 10.76C107.875 11.6133 107.331 12.5733 106.947 13.64C106.584 14.7067 106.403 15.8267 106.403 17C106.403 18.1733 106.584 19.2933 106.947 20.36C107.331 21.4267 107.875 22.3867 108.579 23.24C109.304 24.0933 110.254 24.776 111.427 25.288C112.6 25.7787 113.923 26.024 115.395 26.024C116.867 26.024 118.19 25.7787 119.363 25.288C120.536 24.776 121.475 24.0933 122.179 23.24C122.904 22.3867 123.448 21.4267 123.811 20.36Z" fill="#191414"/>
<path d="M147.275 5.80001H149.963V20.008C149.963 21.544 149.707 22.888 149.195 24.04C148.705 25.1707 148.011 26.0667 147.115 26.728C146.241 27.368 145.259 27.8374 144.171 28.136C143.105 28.4347 141.921 28.584 140.619 28.584C137.867 28.584 135.617 27.9014 133.867 26.536C132.118 25.1707 131.243 22.9947 131.243 20.008V5.80001H133.931V19.88C133.931 23.976 136.161 26.024 140.619 26.024C145.057 26.024 147.275 23.976 147.275 19.88V5.80001Z" fill="#191414"/>
<path d="M155.593 5.80001H163.241C169.577 5.80001 172.745 8.21068 172.745 13.032C172.745 17.8533 169.577 20.264 163.241 20.264H158.281V28.2H155.593V5.80001ZM170.025 13.032C170.025 12.1147 169.854 11.3467 169.513 10.728C169.172 10.088 168.681 9.60802 168.041 9.28802C167.422 8.94668 166.74 8.71201 165.993 8.58401C165.246 8.43468 164.372 8.36002 163.369 8.36002H158.281V17.704H163.369C165.438 17.704 167.06 17.3627 168.233 16.68C169.428 15.9973 170.025 14.7813 170.025 13.032Z" fill="#191414"/>
<path d="M0 5.7998H7.36C11.1787 5.7998 14.1013 6.83447 16.128 8.9038C18.176 10.9518 19.2 13.6505 19.2 16.9998C19.2 20.3491 18.176 23.0585 16.128 25.1278C14.1013 27.1758 11.1787 28.1998 7.36 28.1998H0V5.7998ZM14.144 23.3678C15.7013 21.8531 16.48 19.7305 16.48 16.9998C16.48 14.2691 15.7013 12.1465 14.144 10.6318C12.608 9.11714 10.3467 8.35981 7.36 8.35981H2.688V25.6398H7.36C10.3467 25.6398 12.608 24.8825 14.144 23.3678Z" fill="url(#paint0_linear_246_1901)"/>
<path d="M44.425 5.7998H46.729V28.1998H44.041V10.8878L36.009 22.9198H34.345L26.313 10.8878V28.1998H23.625V5.7998H25.929L35.177 19.6238L44.425 5.7998Z" fill="url(#paint1_linear_246_1901)"/>
<defs>
<linearGradient id="paint0_linear_246_1901" x1="46.729" y1="16.9998" x2="4.0854e-07" y2="16.9998" gradientUnits="userSpaceOnUse">
<stop stop-color="#E16B5F"/>
<stop offset="1" stop-color="#F3A89E"/>
</linearGradient>
<linearGradient id="paint1_linear_246_1901" x1="46.729" y1="16.9998" x2="4.0854e-07" y2="16.9998" gradientUnits="userSpaceOnUse">
<stop stop-color="#E16B5F"/>
<stop offset="1" stop-color="#F3A89E"/>
</linearGradient>
</defs>
</svg>
