<svg width="360" height="34" viewBox="0 0 360 34" fill="none" xmlns="http://www.w3.org/2000/svg">
<mask id="path-1-inside-1_171_1759" fill="white">
<path d="M0 0H188.746V34H0V0Z"/>
</mask>
<path d="M187.746 0V34H189.746V0H187.746Z" fill="#191414" mask="url(#path-1-inside-1_171_1759)"/>
<path d="M59.1211 17C59.1211 14.5467 59.7078 12.424 60.8811 10.632C62.0544 8.81868 63.5264 7.49602 65.2971 6.66401C67.0678 5.83202 68.9771 5.41602 71.0251 5.41602C73.4998 5.41602 75.7398 5.91735 77.7451 6.92002V9.60802C76.0171 8.52002 73.9051 7.97602 71.4091 7.97602C70.1931 7.97602 69.0304 8.15735 67.9211 8.52002C66.8118 8.86135 65.7878 9.38401 64.8491 10.088C63.9318 10.7707 63.1958 11.7093 62.6411 12.904C62.1078 14.0987 61.8411 15.464 61.8411 17C61.8411 18.6213 62.1184 20.04 62.6731 21.256C63.2278 22.4507 63.9744 23.3893 64.9131 24.072C65.8518 24.7333 66.8651 25.224 67.9531 25.544C69.0624 25.864 70.2358 26.024 71.4731 26.024C73.0731 26.024 74.4491 25.7467 75.6011 25.192V16.296H78.2891V27.08C76.1131 28.0827 73.7771 28.584 71.2811 28.584C69.6811 28.584 68.1771 28.3707 66.7691 27.944C65.3611 27.5173 64.0704 26.8667 62.8971 25.992C61.7451 25.096 60.8278 23.88 60.1451 22.344C59.4624 20.808 59.1211 19.0267 59.1211 17Z" fill="#191414"/>
<path d="M85.8436 28.2H83.1556V5.80001H91.9236C93.3956 5.80001 94.7289 6.00268 95.9236 6.40801C97.1183 6.79201 98.1423 7.51735 98.9956 8.58401C99.8703 9.62935 100.308 10.9627 100.308 12.584C100.308 14.504 99.7529 15.9973 98.6436 17.064C97.5343 18.1307 96.0943 18.824 94.3236 19.144L101.908 28.2H98.5476L91.2196 19.368H85.8436V28.2ZM85.8436 8.36002V16.808H92.0516C93.6303 16.808 94.9423 16.488 95.9876 15.848C97.0543 15.1867 97.5876 14.0987 97.5876 12.584C97.5876 11.048 97.0543 9.96002 95.9876 9.32001C94.9423 8.68002 93.6303 8.36002 92.0516 8.36002H85.8436Z" fill="#191414"/>
<path d="M104.419 21.256C103.928 19.8907 103.683 18.472 103.683 17C103.683 15.528 103.928 14.1093 104.419 12.744C104.931 11.3787 105.656 10.152 106.595 9.06401C107.534 7.95468 108.76 7.06935 110.275 6.40801C111.79 5.74668 113.496 5.41602 115.395 5.41602C117.294 5.41602 119 5.74668 120.515 6.40801C122.03 7.06935 123.256 7.95468 124.195 9.06401C125.134 10.152 125.848 11.3787 126.339 12.744C126.851 14.1093 127.107 15.528 127.107 17C127.107 18.472 126.851 19.8907 126.339 21.256C125.848 22.6213 125.134 23.8587 124.195 24.968C123.256 26.056 122.03 26.9307 120.515 27.592C119 28.2533 117.294 28.584 115.395 28.584C113.496 28.584 111.79 28.2533 110.275 27.592C108.76 26.9307 107.534 26.056 106.595 24.968C105.656 23.8587 104.931 22.6213 104.419 21.256ZM123.811 20.36C124.195 19.2933 124.387 18.1733 124.387 17C124.387 15.8267 124.195 14.7067 123.811 13.64C123.448 12.5733 122.904 11.6133 122.179 10.76C121.475 9.90668 120.536 9.23468 119.363 8.74401C118.19 8.23201 116.867 7.97602 115.395 7.97602C113.923 7.97602 112.6 8.23201 111.427 8.74401C110.254 9.23468 109.304 9.90668 108.579 10.76C107.875 11.6133 107.331 12.5733 106.947 13.64C106.584 14.7067 106.403 15.8267 106.403 17C106.403 18.1733 106.584 19.2933 106.947 20.36C107.331 21.4267 107.875 22.3867 108.579 23.24C109.304 24.0933 110.254 24.776 111.427 25.288C112.6 25.7787 113.923 26.024 115.395 26.024C116.867 26.024 118.19 25.7787 119.363 25.288C120.536 24.776 121.475 24.0933 122.179 23.24C122.904 22.3867 123.448 21.4267 123.811 20.36Z" fill="#191414"/>
<path d="M147.275 5.80001H149.963V20.008C149.963 21.544 149.707 22.888 149.195 24.04C148.705 25.1707 148.011 26.0667 147.115 26.728C146.241 27.368 145.259 27.8374 144.171 28.136C143.105 28.4347 141.921 28.584 140.619 28.584C137.867 28.584 135.617 27.9014 133.867 26.536C132.118 25.1707 131.243 22.9947 131.243 20.008V5.80001H133.931V19.88C133.931 23.976 136.161 26.024 140.619 26.024C145.057 26.024 147.275 23.976 147.275 19.88V5.80001Z" fill="#191414"/>
<path d="M155.593 5.80001H163.241C169.577 5.80001 172.745 8.21068 172.745 13.032C172.745 17.8533 169.577 20.264 163.241 20.264H158.281V28.2H155.593V5.80001ZM170.025 13.032C170.025 12.1147 169.854 11.3467 169.513 10.728C169.172 10.088 168.681 9.60802 168.041 9.28802C167.422 8.94668 166.74 8.71201 165.993 8.58401C165.246 8.43468 164.372 8.36002 163.369 8.36002H158.281V17.704H163.369C165.438 17.704 167.06 17.3627 168.233 16.68C169.428 15.9973 170.025 14.7813 170.025 13.032Z" fill="#191414"/>
<path d="M0 5.7998H7.36C11.1787 5.7998 14.1013 6.83447 16.128 8.9038C18.176 10.9518 19.2 13.6505 19.2 16.9998C19.2 20.3491 18.176 23.0585 16.128 25.1278C14.1013 27.1758 11.1787 28.1998 7.36 28.1998H0V5.7998ZM14.144 23.3678C15.7013 21.8531 16.48 19.7305 16.48 16.9998C16.48 14.2691 15.7013 12.1465 14.144 10.6318C12.608 9.11714 10.3467 8.35981 7.36 8.35981H2.688V25.6398H7.36C10.3467 25.6398 12.608 24.8825 14.144 23.3678Z" fill="url(#paint0_linear_171_1759)"/>
<path d="M44.425 5.7998H46.729V28.1998H44.041V10.8878L36.009 22.9198H34.345L26.313 10.8878V28.1998H23.625V5.7998H25.929L35.177 19.6238L44.425 5.7998Z" fill="url(#paint1_linear_171_1759)"/>
<path d="M206.902 12H205.782V5.28H210.696V6.316H206.902V12ZM212.983 6.4C213.739 5.54133 214.645 5.112 215.699 5.112C216.661 5.112 217.459 5.448 218.093 6.12C218.737 6.792 219.059 7.632 219.059 8.64C219.059 9.648 218.737 10.488 218.093 11.16C217.459 11.832 216.661 12.168 215.699 12.168C214.635 12.168 213.767 11.776 213.095 10.992V15.08H211.975V5.28H212.983V6.4ZM217.253 10.446C217.711 9.98867 217.939 9.38667 217.939 8.64C217.939 7.89333 217.711 7.29133 217.253 6.834C216.805 6.37667 216.245 6.148 215.573 6.148C215.004 6.148 214.5 6.30667 214.061 6.624C213.623 6.94133 213.301 7.33333 213.095 7.8V9.48C213.301 9.94667 213.623 10.3387 214.061 10.656C214.5 10.9733 215.004 11.132 215.573 11.132C216.245 11.132 216.805 10.9033 217.253 10.446ZM223.266 10.726L225.534 5.28H226.724L223.42 13.008C222.776 14.5013 221.932 15.248 220.886 15.248C220.634 15.248 220.392 15.2153 220.158 15.15V14.184C220.354 14.24 220.55 14.268 220.746 14.268C221.465 14.268 222.044 13.722 222.482 12.63L222.734 12.014L219.542 5.28H220.732L223.266 10.726ZM229.092 12H227.972V5.28H234.104V12H232.984V6.316H229.092V12ZM237.295 12H236.175V5.28H242.307V12H241.187V6.316H237.295V12ZM249.838 10.6C249.838 10.9453 250.01 11.118 250.356 11.118C250.505 11.118 250.678 11.0853 250.874 11.02V11.93C250.594 12.0327 250.314 12.084 250.034 12.084C249.39 12.084 248.979 11.8133 248.802 11.272C248.083 11.8693 247.21 12.168 246.184 12.168C245.53 12.168 244.97 11.9953 244.504 11.65C244.046 11.2953 243.818 10.7867 243.818 10.124C243.818 9.33067 244.112 8.75667 244.7 8.402C245.297 8.038 246.016 7.856 246.856 7.856C247.472 7.856 248.092 7.926 248.718 8.066V7.828C248.718 7.31467 248.55 6.90867 248.214 6.61C247.878 6.302 247.406 6.148 246.8 6.148C245.95 6.148 245.134 6.316 244.35 6.652V5.56C245.227 5.26133 246.081 5.112 246.912 5.112C247.826 5.112 248.54 5.35933 249.054 5.854C249.576 6.33933 249.838 7.044 249.838 7.968V10.6ZM244.966 10.068C244.966 10.4413 245.106 10.726 245.386 10.922C245.675 11.1087 246.02 11.202 246.422 11.202C247.346 11.202 248.111 10.8753 248.718 10.222V8.99C248.083 8.85933 247.514 8.794 247.01 8.794C246.44 8.794 245.955 8.89667 245.554 9.102C245.162 9.298 244.966 9.62 244.966 10.068ZM256.681 12H255.561V5.28H256.681V8.08H258.039L260.167 5.28H261.469L258.921 8.626L261.777 12H260.461L257.997 9.116H256.681V12ZM263.15 11.23C262.44 10.5953 262.086 9.732 262.086 8.64C262.086 7.548 262.44 6.68933 263.15 6.064C263.859 5.42933 264.699 5.112 265.67 5.112C266.65 5.112 267.49 5.42933 268.19 6.064C268.899 6.68933 269.254 7.548 269.254 8.64C269.254 9.732 268.899 10.5953 268.19 11.23C267.49 11.8553 266.65 12.168 265.67 12.168C264.699 12.168 263.859 11.8553 263.15 11.23ZM267.434 10.446C267.9 9.998 268.134 9.396 268.134 8.64C268.134 7.884 267.9 7.28667 267.434 6.848C266.967 6.4 266.379 6.176 265.67 6.176C264.96 6.176 264.372 6.4 263.906 6.848C263.439 7.28667 263.206 7.884 263.206 8.64C263.206 9.396 263.439 9.998 263.906 10.446C264.372 10.8847 264.96 11.104 265.67 11.104C266.379 11.104 266.967 10.8847 267.434 10.446ZM271.924 12H270.86V5.28H272.078L274.528 9.004L276.978 5.28H278.196V12H277.132V6.932L274.948 10.25H274.108L271.924 6.932V12ZM281.386 12H280.266V5.28H286.398V12H285.278V6.316H281.386V12ZM293.93 10.6C293.93 10.9453 294.102 11.118 294.448 11.118C294.597 11.118 294.77 11.0853 294.966 11.02V11.93C294.686 12.0327 294.406 12.084 294.126 12.084C293.482 12.084 293.071 11.8133 292.894 11.272C292.175 11.8693 291.302 12.168 290.276 12.168C289.622 12.168 289.062 11.9953 288.596 11.65C288.138 11.2953 287.91 10.7867 287.91 10.124C287.91 9.33067 288.204 8.75667 288.792 8.402C289.389 8.038 290.108 7.856 290.948 7.856C291.564 7.856 292.184 7.926 292.81 8.066V7.828C292.81 7.31467 292.642 6.90867 292.306 6.61C291.97 6.302 291.498 6.148 290.892 6.148C290.042 6.148 289.226 6.316 288.442 6.652V5.56C289.319 5.26133 290.173 5.112 291.004 5.112C291.918 5.112 292.632 5.35933 293.146 5.854C293.668 6.33933 293.93 7.044 293.93 7.968V10.6ZM289.058 10.068C289.058 10.4413 289.198 10.726 289.478 10.922C289.767 11.1087 290.112 11.202 290.514 11.202C291.438 11.202 292.203 10.8753 292.81 10.222V8.99C292.175 8.85933 291.606 8.794 291.102 8.794C290.532 8.794 290.047 8.89667 289.646 9.102C289.254 9.298 289.058 9.62 289.058 10.068ZM297.287 12H296.167V5.28H297.287V8.122H301.179V5.28H302.299V12H301.179V9.158H297.287V12ZM305.322 12H304.37V5.28H305.49V10.194L309.606 5.28H310.558V12H309.438V7.086L305.322 12ZM317.682 3.656C317.131 4.048 316.478 4.244 315.722 4.244C314.966 4.244 314.312 4.048 313.762 3.656V2.648C314.387 3.05867 315.04 3.264 315.722 3.264C316.403 3.264 317.056 3.05867 317.682 2.648V3.656ZM313.58 12H312.628V5.28H313.748V10.194L317.864 5.28H318.816V12H317.696V7.086L313.58 12ZM209.576 29H205.782V22.28H209.464C210.071 22.28 210.565 22.4387 210.948 22.756C211.34 23.0733 211.536 23.5213 211.536 24.1C211.536 24.436 211.452 24.7393 211.284 25.01C211.116 25.2807 210.901 25.472 210.64 25.584C210.948 25.6867 211.209 25.8733 211.424 26.144C211.639 26.4147 211.746 26.746 211.746 27.138C211.746 27.7073 211.559 28.16 211.186 28.496C210.822 28.832 210.285 29 209.576 29ZM206.902 26.088V28.02H209.422C210.225 28.02 210.626 27.7027 210.626 27.068C210.626 26.4147 210.239 26.088 209.464 26.088H206.902ZM206.902 23.26V25.122H209.352C210.052 25.122 210.402 24.8187 210.402 24.212C210.402 23.8667 210.299 23.624 210.094 23.484C209.889 23.3347 209.641 23.26 209.352 23.26H206.902ZM216.476 25.668C216.476 25.08 216.584 24.5527 216.798 24.086C217.013 23.6193 217.293 23.246 217.638 22.966C217.993 22.686 218.38 22.476 218.8 22.336C219.23 22.1867 219.668 22.112 220.116 22.112C220.947 22.112 221.638 22.294 222.188 22.658V23.75C221.675 23.3487 221.031 23.148 220.256 23.148C219.528 23.148 218.903 23.358 218.38 23.778C217.858 24.198 217.596 24.8187 217.596 25.64C217.596 26.452 217.853 27.0727 218.366 27.502C218.889 27.922 219.51 28.132 220.228 28.132C220.975 28.132 221.652 27.95 222.258 27.586V28.706C221.624 29.014 220.896 29.168 220.074 29.168C219.104 29.168 218.259 28.8647 217.54 28.258C216.831 27.6513 216.476 26.788 216.476 25.668ZM228.352 32.08H227.232V29.168C226.094 29.14 225.151 28.8087 224.404 28.174C223.667 27.53 223.298 26.6853 223.298 25.64C223.298 24.5947 223.667 23.7547 224.404 23.12C225.151 22.476 226.094 22.14 227.232 22.112V19.2H228.352V22.112C229.491 22.14 230.429 22.476 231.166 23.12C231.913 23.7547 232.286 24.5947 232.286 25.64C232.286 26.6853 231.913 27.53 231.166 28.174C230.429 28.8087 229.491 29.14 228.352 29.168V32.08ZM225.174 23.82C224.67 24.268 224.418 24.8747 224.418 25.64C224.418 26.4053 224.67 27.0167 225.174 27.474C225.688 27.922 226.374 28.16 227.232 28.188V23.092C226.374 23.12 225.688 23.3627 225.174 23.82ZM228.352 23.092V28.188C229.211 28.16 229.892 27.922 230.396 27.474C230.91 27.0167 231.166 26.4053 231.166 25.64C231.166 24.8747 230.91 24.268 230.396 23.82C229.892 23.3627 229.211 23.12 228.352 23.092ZM233.416 25.64C233.416 24.5387 233.752 23.6753 234.424 23.05C235.105 22.4247 235.884 22.112 236.762 22.112C237.583 22.112 238.26 22.3173 238.792 22.728C239.333 23.1387 239.688 23.6473 239.856 24.254C240.024 24.8513 240.033 25.4767 239.884 26.13H234.536C234.601 26.7927 234.895 27.292 235.418 27.628C235.94 27.964 236.57 28.132 237.308 28.132C238.129 28.132 238.866 27.95 239.52 27.586V28.678C238.894 29.0047 238.101 29.168 237.14 29.168C236.076 29.168 235.189 28.8647 234.48 28.258C233.77 27.6513 233.416 26.7787 233.416 25.64ZM238.89 25.15C238.918 24.954 238.904 24.7487 238.848 24.534C238.792 24.3193 238.689 24.1047 238.54 23.89C238.4 23.6753 238.18 23.498 237.882 23.358C237.583 23.218 237.233 23.148 236.832 23.148C236.225 23.148 235.698 23.3253 235.25 23.68C234.811 24.0347 234.573 24.5247 234.536 25.15H238.89ZM242.528 23.4C243.284 22.5413 244.19 22.112 245.244 22.112C246.206 22.112 247.004 22.448 247.638 23.12C248.282 23.792 248.604 24.632 248.604 25.64C248.604 26.648 248.282 27.488 247.638 28.16C247.004 28.832 246.206 29.168 245.244 29.168C244.18 29.168 243.312 28.776 242.64 27.992V32.08H241.52V22.28H242.528V23.4ZM246.798 27.446C247.256 26.9887 247.484 26.3867 247.484 25.64C247.484 24.8933 247.256 24.2913 246.798 23.834C246.35 23.3767 245.79 23.148 245.118 23.148C244.549 23.148 244.045 23.3067 243.606 23.624C243.168 23.9413 242.846 24.3333 242.64 24.8V26.48C242.846 26.9467 243.168 27.3387 243.606 27.656C244.045 27.9733 244.549 28.132 245.118 28.132C245.79 28.132 246.35 27.9033 246.798 27.446ZM249.754 25.64C249.754 24.5387 250.09 23.6753 250.762 23.05C251.443 22.4247 252.222 22.112 253.1 22.112C253.921 22.112 254.598 22.3173 255.13 22.728C255.671 23.1387 256.026 23.6473 256.194 24.254C256.362 24.8513 256.371 25.4767 256.222 26.13H250.874C250.939 26.7927 251.233 27.292 251.756 27.628C252.278 27.964 252.908 28.132 253.646 28.132C254.467 28.132 255.204 27.95 255.858 27.586V28.678C255.232 29.0047 254.439 29.168 253.478 29.168C252.414 29.168 251.527 28.8647 250.818 28.258C250.108 27.6513 249.754 26.7787 249.754 25.64ZM255.228 25.15C255.256 24.954 255.242 24.7487 255.186 24.534C255.13 24.3193 255.027 24.1047 254.878 23.89C254.738 23.6753 254.518 23.498 254.22 23.358C253.921 23.218 253.571 23.148 253.17 23.148C252.563 23.148 252.036 23.3253 251.588 23.68C251.149 24.0347 250.911 24.5247 250.874 25.15H255.228ZM262.465 29H261.345V22.28H262.465V25.122H266.357V22.28H267.477V29H266.357V26.158H262.465V29ZM269.086 25.64C269.086 24.5387 269.422 23.6753 270.094 23.05C270.775 22.4247 271.554 22.112 272.432 22.112C273.253 22.112 273.93 22.3173 274.462 22.728C275.003 23.1387 275.358 23.6473 275.526 24.254C275.694 24.8513 275.703 25.4767 275.554 26.13H270.206C270.271 26.7927 270.565 27.292 271.088 27.628C271.61 27.964 272.24 28.132 272.978 28.132C273.799 28.132 274.536 27.95 275.19 27.586V28.678C274.564 29.0047 273.771 29.168 272.81 29.168C271.746 29.168 270.859 28.8647 270.15 28.258C269.44 27.6513 269.086 26.7787 269.086 25.64ZM274.56 25.15C274.588 24.954 274.574 24.7487 274.518 24.534C274.462 24.3193 274.359 24.1047 274.21 23.89C274.07 23.6753 273.85 23.498 273.552 23.358C273.253 23.218 272.903 23.148 272.502 23.148C271.895 23.148 271.368 23.3253 270.92 23.68C270.481 24.0347 270.243 24.5247 270.206 25.15H274.56ZM277.501 30.82H276.409V27.992H277.305C278.098 26.592 278.481 24.688 278.453 22.28H283.465V27.992H284.445V30.82H283.353V29H277.501V30.82ZM279.531 23.288C279.484 25.1267 279.148 26.6947 278.523 27.992H282.345V23.288H279.531ZM289.734 29H285.94V22.28H289.622C290.229 22.28 290.724 22.4387 291.106 22.756C291.498 23.0733 291.694 23.5213 291.694 24.1C291.694 24.436 291.61 24.7393 291.442 25.01C291.274 25.2807 291.06 25.472 290.798 25.584C291.106 25.6867 291.368 25.8733 291.582 26.144C291.797 26.4147 291.904 26.746 291.904 27.138C291.904 27.7073 291.718 28.16 291.344 28.496C290.98 28.832 290.444 29 289.734 29ZM287.06 26.088V28.02H289.58C290.383 28.02 290.784 27.7027 290.784 27.068C290.784 26.4147 290.397 26.088 289.622 26.088H287.06ZM287.06 23.26V25.122H289.51C290.21 25.122 290.56 24.8187 290.56 24.212C290.56 23.8667 290.458 23.624 290.252 23.484C290.047 23.3347 289.8 23.26 289.51 23.26H287.06ZM294.562 29H293.61V22.28H294.73V27.194L298.846 22.28H299.798V29H298.678V24.086L294.562 29ZM311.29 29H310.03L307.748 26.186H306.67V29H305.55V26.186H304.472L302.19 29H300.93L303.604 25.626L301.238 22.28H302.484L304.528 25.15H305.55V22.28H306.67V25.15H307.692L309.736 22.28H310.982L308.616 25.626L311.29 29ZM313.375 29H312.423V22.28H313.543V27.194L317.659 22.28H318.611V29H317.491V24.086L313.375 29ZM321.745 29H320.681V22.28H321.899L324.349 26.004L326.799 22.28H328.017V29H326.953V23.932L324.769 27.25H323.929L321.745 23.932V29ZM330.689 28.23C329.979 27.5953 329.625 26.732 329.625 25.64C329.625 24.548 329.979 23.6893 330.689 23.064C331.398 22.4293 332.238 22.112 333.209 22.112C334.189 22.112 335.029 22.4293 335.729 23.064C336.438 23.6893 336.793 24.548 336.793 25.64C336.793 26.732 336.438 27.5953 335.729 28.23C335.029 28.8553 334.189 29.168 333.209 29.168C332.238 29.168 331.398 28.8553 330.689 28.23ZM334.973 27.446C335.439 26.998 335.673 26.396 335.673 25.64C335.673 24.884 335.439 24.2867 334.973 23.848C334.506 23.4 333.918 23.176 333.209 23.176C332.499 23.176 331.911 23.4 331.445 23.848C330.978 24.2867 330.745 24.884 330.745 25.64C330.745 26.396 330.978 26.998 331.445 27.446C331.911 27.8847 332.499 28.104 333.209 28.104C333.918 28.104 334.506 27.8847 334.973 27.446ZM337.937 25.668C337.937 25.08 338.045 24.5527 338.259 24.086C338.474 23.6193 338.754 23.246 339.099 22.966C339.454 22.686 339.841 22.476 340.261 22.336C340.691 22.1867 341.129 22.112 341.577 22.112C342.408 22.112 343.099 22.294 343.649 22.658V23.75C343.136 23.3487 342.492 23.148 341.717 23.148C340.989 23.148 340.364 23.358 339.841 23.778C339.319 24.198 339.057 24.8187 339.057 25.64C339.057 26.452 339.314 27.0727 339.827 27.502C340.35 27.922 340.971 28.132 341.689 28.132C342.436 28.132 343.113 27.95 343.719 27.586V28.706C343.085 29.014 342.357 29.168 341.535 29.168C340.565 29.168 339.72 28.8647 339.001 28.258C338.292 27.6513 337.937 26.788 337.937 25.668ZM348.158 29H347.038V23.316H344.56V22.28H350.622V23.316H348.158V29ZM352.845 29H351.893V22.28H353.013V27.194L357.129 22.28H358.081V29H356.961V24.086L352.845 29Z" fill="#191414"/>
<defs>
<linearGradient id="paint0_linear_171_1759" x1="46.729" y1="16.9998" x2="4.0854e-07" y2="16.9998" gradientUnits="userSpaceOnUse">
<stop stop-color="#E16B5F"/>
<stop offset="1" stop-color="#F3A89E"/>
</linearGradient>
<linearGradient id="paint1_linear_171_1759" x1="46.729" y1="16.9998" x2="4.0854e-07" y2="16.9998" gradientUnits="userSpaceOnUse">
<stop stop-color="#E16B5F"/>
<stop offset="1" stop-color="#F3A89E"/>
</linearGradient>
</defs>
</svg>
