<svg width="124" height="25" viewBox="0 0 124 25" fill="none" xmlns="http://www.w3.org/2000/svg">
<path d="M42.375 12.1848C42.375 10.4264 42.7955 8.90491 43.6365 7.62047C44.4775 6.32074 45.5326 5.3727 46.8017 4.77636C48.0709 4.18001 49.4394 3.88184 50.9073 3.88184C52.6811 3.88184 54.2866 4.24117 55.724 4.95985V6.88651C54.4854 6.10667 52.9716 5.71675 51.1826 5.71675C50.311 5.71675 49.4776 5.84672 48.6825 6.10667C47.8874 6.35132 47.1534 6.72595 46.4806 7.23055C45.8231 7.71986 45.2956 8.39266 44.898 9.24896C44.5157 10.1053 44.3246 11.0839 44.3246 12.1848C44.3246 13.3469 44.5234 14.3638 44.9209 15.2354C45.3185 16.0917 45.8537 16.7645 46.5265 17.2538C47.1993 17.7278 47.9256 18.0795 48.7055 18.3088C49.5006 18.5382 50.3416 18.6529 51.2285 18.6529C52.3753 18.6529 53.3615 18.4541 54.1873 18.0565V11.6802H56.1139V19.4098C54.5542 20.1285 52.8799 20.4878 51.0908 20.4878C49.944 20.4878 48.866 20.3349 47.8568 20.0291C46.8476 19.7233 45.9225 19.2569 45.0815 18.63C44.2558 17.9877 43.5983 17.1161 43.109 16.0152C42.6197 14.9143 42.375 13.6375 42.375 12.1848Z" fill="white"/>
<path d="M61.5287 20.2126H59.602V4.15707H65.8866C66.9417 4.15707 67.8974 4.30234 68.7537 4.59286C69.61 4.8681 70.3439 5.38799 70.9556 6.15254C71.5825 6.9018 71.896 7.85748 71.896 9.01959C71.896 10.3958 71.4984 11.4661 70.7033 12.2307C69.9081 12.9952 68.876 13.4922 67.6068 13.7216L73.0428 20.2126H70.6345L65.382 13.8821H61.5287V20.2126ZM61.5287 5.99199V12.0472H65.9784C67.1099 12.0472 68.0503 11.8178 68.7995 11.3591C69.5641 10.8851 69.9464 10.1052 69.9464 9.01959C69.9464 7.91865 69.5641 7.13881 68.7995 6.68008C68.0503 6.22135 67.1099 5.99199 65.9784 5.99199H61.5287Z" fill="white"/>
<path d="M74.8428 15.2354C74.4911 14.2567 74.3152 13.2399 74.3152 12.1848C74.3152 11.1297 74.4911 10.1129 74.8428 9.13428C75.2097 8.15565 75.7296 7.27642 76.4024 6.49659C77.0752 5.70146 77.9545 5.06688 79.0401 4.59286C80.1258 4.11885 81.349 3.88184 82.7099 3.88184C84.0708 3.88184 85.2941 4.11885 86.3798 4.59286C87.4654 5.06688 88.3447 5.70146 89.0175 6.49659C89.6903 7.27642 90.2025 8.15565 90.5542 9.13428C90.9212 10.1129 91.1047 11.1297 91.1047 12.1848C91.1047 13.2399 90.9212 14.2567 90.5542 15.2354C90.2025 16.214 89.6903 17.1009 89.0175 17.896C88.3447 18.6758 87.4654 19.3028 86.3798 19.7768C85.2941 20.2508 84.0708 20.4878 82.7099 20.4878C81.349 20.4878 80.1258 20.2508 79.0401 19.7768C77.9545 19.3028 77.0752 18.6758 76.4024 17.896C75.7296 17.1009 75.2097 16.214 74.8428 15.2354ZM88.7422 14.5931C89.0175 13.8286 89.1551 13.0258 89.1551 12.1848C89.1551 11.3438 89.0175 10.541 88.7422 9.77649C88.4823 9.01195 88.0924 8.32386 87.5725 7.71222C87.0679 7.10058 86.3951 6.61891 85.5541 6.26722C84.7131 5.90024 83.765 5.71675 82.7099 5.71675C81.6549 5.71675 80.7068 5.90024 79.8658 6.26722C79.0248 6.61891 78.3444 7.10058 77.8245 7.71222C77.3199 8.32386 76.93 9.01195 76.6547 9.77649C76.3948 10.541 76.2648 11.3438 76.2648 12.1848C76.2648 13.0258 76.3948 13.8286 76.6547 14.5931C76.93 15.3577 77.3199 16.0458 77.8245 16.6574C78.3444 17.2691 79.0248 17.7584 79.8658 18.1254C80.7068 18.477 81.6549 18.6529 82.7099 18.6529C83.765 18.6529 84.7131 18.477 85.5541 18.1254C86.3951 17.7584 87.0679 17.2691 87.5725 16.6574C88.0924 16.0458 88.4823 15.3577 88.7422 14.5931Z" fill="white"/>
<path d="M105.561 4.15707H107.487V14.3408C107.487 15.4418 107.304 16.4051 106.937 17.2308C106.585 18.0413 106.088 18.6835 105.446 19.1575C104.819 19.6162 104.116 19.9526 103.336 20.1667C102.571 20.3808 101.723 20.4878 100.79 20.4878C98.8174 20.4878 97.2042 19.9985 95.9503 19.0199C94.6965 18.0413 94.0696 16.4816 94.0696 14.3408V4.15707H95.9962V14.2491C95.9962 17.185 97.5941 18.6529 100.79 18.6529C103.97 18.6529 105.561 17.185 105.561 14.2491V4.15707Z" fill="white"/>
<path d="M111.523 4.15707H117.004C121.546 4.15707 123.816 5.88495 123.816 9.3407C123.816 12.7965 121.546 14.5243 117.004 14.5243H113.449V20.2126H111.523V4.15707ZM121.867 9.3407C121.867 8.68319 121.745 8.13272 121.5 7.68928C121.255 7.23055 120.904 6.88651 120.445 6.65714C120.001 6.41249 119.512 6.24429 118.977 6.15254C118.442 6.0455 117.815 5.99199 117.096 5.99199H113.449V12.6894H117.096C118.579 12.6894 119.741 12.4448 120.582 11.9555C121.439 11.4661 121.867 10.5946 121.867 9.3407Z" fill="white"/>
<path d="M0 4.15698H5.27538C8.01246 4.15698 10.1073 4.89859 11.56 6.38181C13.0279 7.84975 13.7619 9.78405 13.7619 12.1847C13.7619 14.5854 13.0279 16.5274 11.56 18.0106C10.1073 19.4785 8.01246 20.2125 5.27538 20.2125H0V4.15698ZM10.1379 16.7491C11.2541 15.6634 11.8123 14.142 11.8123 12.1847C11.8123 10.2275 11.2541 8.70604 10.1379 7.62038C9.03695 6.53473 7.41611 5.9919 5.27538 5.9919H1.92666V18.3776H5.27538C7.41611 18.3776 9.03695 17.8347 10.1379 16.7491Z" fill="url(#paint0_linear_2152_2072)"/>
<path d="M31.8422 4.15698H33.4936V20.2125H31.567V7.80387L25.8099 16.428H24.6172L18.8602 7.80387V20.2125H16.9335V4.15698H18.5849L25.2136 14.0655L31.8422 4.15698Z" fill="url(#paint1_linear_2152_2072)"/>
<defs>
<linearGradient id="paint0_linear_2152_2072" x1="33.4936" y1="12.1847" x2="2.92827e-07" y2="12.1847" gradientUnits="userSpaceOnUse">
<stop stop-color="#E16B5F"/>
<stop offset="1" stop-color="#F3A89E"/>
</linearGradient>
<linearGradient id="paint1_linear_2152_2072" x1="33.4936" y1="12.1847" x2="2.92827e-07" y2="12.1847" gradientUnits="userSpaceOnUse">
<stop stop-color="#E16B5F"/>
<stop offset="1" stop-color="#F3A89E"/>
</linearGradient>
</defs>
</svg>
