<svg width="68" height="68" viewBox="0 0 68 68" fill="none" xmlns="http://www.w3.org/2000/svg">
<g clip-path="url(#clip0_299_1088)">
<path d="M68 33.9999C68 29.1946 65.5633 24.9587 61.8573 22.4597C62.7102 18.0737 61.438 13.3562 58.0408 9.95624C54.6437 6.55907 49.9262 5.2869 45.5373 6.13974C43.0383 2.43374 38.8025 -0.00292969 33.9972 -0.00292969C29.1918 -0.00292969 24.956 2.43374 22.457 6.13974C18.071 5.2869 13.3507 6.55907 9.95349 9.95624C6.55632 13.3534 5.28416 18.0709 6.13699 22.4597C2.43099 24.9587 -0.00567627 29.1946 -0.00567627 33.9999C-0.00567627 38.8052 2.43099 43.0411 6.13699 45.5401C5.28416 49.9261 6.55632 54.6464 9.95349 58.0436C13.3507 61.4407 18.0682 62.7129 22.457 61.8601C24.956 65.5661 29.1918 68.0027 33.9972 68.0027C38.8025 68.0027 43.0383 65.5661 45.5373 61.8601C49.9233 62.7129 54.6437 61.4407 58.0408 58.0436C61.438 54.6464 62.7102 49.9289 61.8573 45.5401C65.5633 43.0411 68 38.8052 68 33.9999ZM22.6667 25.4999C22.6667 23.9359 23.936 22.6666 25.5 22.6666C27.064 22.6666 28.3333 23.9359 28.3333 25.4999C28.3333 27.0639 27.064 28.3332 25.5 28.3332C23.936 28.3332 22.6667 27.0639 22.6667 25.4999ZM30.5037 45.3332H23.8963L37.4963 22.6666H44.1037L30.5037 45.3332ZM42.5 45.3332C40.936 45.3332 39.6667 44.0639 39.6667 42.4999C39.6667 40.9359 40.936 39.6666 42.5 39.6666C44.064 39.6666 45.3333 40.9359 45.3333 42.4999C45.3333 44.0639 44.064 45.3332 42.5 45.3332Z" fill="#279376"/>
</g>
<defs>
<clipPath id="clip0_299_1088">
<rect width="68" height="68" fill="white"/>
</clipPath>
</defs>
</svg>
