<svg width="44" height="44" viewBox="0 0 44 44" fill="none" xmlns="http://www.w3.org/2000/svg">
<path d="M38.8868 8.54736C39.9181 9.89854 40.7911 11.3665 41.4881 12.9217L21.7137 27.6947L13.4495 22.4445V16.1282L21.7137 21.3784L38.8868 8.54736Z" fill="white"/>
<path d="M5.01519 21.9994C5.01519 21.716 5.02201 21.4344 5.03566 21.1545L0.0272765 20.9058C0.0102296 21.2686 6.05239e-06 21.6348 6.05239e-06 22.0045C-0.00212487 24.8929 0.558457 27.7531 1.64961 30.4213C2.74075 33.0896 4.34098 35.5132 6.35849 37.5532L9.91106 33.9545C8.35805 32.387 7.12604 30.5238 6.28584 28.4721C5.44564 26.4205 5.01382 24.2207 5.01519 21.9994Z" fill="white"/>
<path d="M21.7092 5.08217C21.9887 5.08217 22.2665 5.09254 22.5427 5.10636L22.7933 0.0288594C22.4342 0.0115831 22.0728 0.002946 21.7092 0.002946C18.8578 -0.000577937 16.034 0.566728 13.3997 1.67229C10.7653 2.77785 8.37246 4.3999 6.3584 6.44528L9.91097 10.0457C11.4578 8.47123 13.2964 7.22219 15.3212 6.37038C17.346 5.51858 19.5168 5.08077 21.7092 5.08217Z" fill="white"/>
<path d="M21.7092 38.9178C21.4297 38.9178 21.1518 38.9178 20.874 38.8953L20.6234 43.9711C20.9837 43.9895 21.3456 43.9988 21.7092 43.9988C24.5594 44.0017 27.3819 43.4341 30.0148 42.3282C32.6477 41.2223 35.039 39.6 37.0516 37.5547L33.5058 33.9561C31.9587 35.5296 30.1202 36.778 28.0959 37.6295C26.0715 38.481 23.9011 38.9188 21.7092 38.9178Z" fill="white"/>
<path d="M31.1196 8.03351L35.3403 4.88058C31.4825 1.71463 26.6669 -0.00878833 21.7028 3.37016e-05V5.08099C25.0642 5.07676 28.3477 6.10628 31.1196 8.03351Z" fill="white"/>
<path d="M43.4169 22.0001C43.4196 20.6783 43.3055 19.3588 43.0759 18.0576L38.4034 21.5474C38.4034 21.6978 38.4034 21.8481 38.4034 22.0001C38.4046 24.364 37.9157 26.7017 36.9684 28.8618C36.021 31.0219 34.6362 32.9562 32.9041 34.5392L36.2743 38.3141C38.5262 36.2537 40.3258 33.7368 41.5563 30.9264C42.7868 28.1159 43.4207 25.0747 43.4169 22.0001Z" fill="white"/>
<path d="M21.7093 38.9186C19.3767 38.9194 17.0698 38.4237 14.9381 37.4636C12.8065 36.5036 10.8976 35.1004 9.33497 33.3452L5.61194 36.759C7.64471 39.0416 10.1282 40.8657 12.9013 42.1131C15.6744 43.3604 18.6753 44.0031 21.7093 43.9994V38.9186Z" fill="white"/>
<path d="M10.5145 9.45993L7.14607 5.68506C4.89344 7.74504 3.09321 10.2619 1.86213 13.0723C0.631067 15.8828 -0.00335632 18.9241 1.33531e-05 21.999H5.01521C5.01417 19.6353 5.50319 17.2975 6.45053 15.1374C7.39788 12.9774 8.78245 11.0431 10.5145 9.45993Z" fill="white"/>
</svg>
