<svg width="68" height="68" viewBox="0 0 68 68" fill="none" xmlns="http://www.w3.org/2000/svg">
<g clip-path="url(#clip0_299_1094)">
<path d="M28.3333 67.9996H0V62.3329H28.3333V67.9996ZM22.6667 50.9996H0V56.6662H22.6667V50.9996ZM17 39.6662H0V45.3329H17V39.6662ZM67.9745 32.6566C68.1501 37.2298 67.4017 41.7915 65.7739 46.0688C64.1461 50.3462 61.6724 54.2513 58.5008 57.5507C55.3291 60.8501 51.5247 63.476 47.3149 65.2713C43.1052 67.0666 38.5766 67.9946 34 67.9996V62.3329C34 60.83 33.403 59.3887 32.3403 58.326C31.2776 57.2633 29.8362 56.6662 28.3333 56.6662V50.9996C28.3333 49.4967 27.7363 48.0553 26.6736 46.9926C25.6109 45.9299 24.1696 45.3329 22.6667 45.3329V39.6662C22.6667 38.1633 22.0696 36.722 21.0069 35.6593C19.9442 34.5966 18.5029 33.9996 17 33.9996H0C0.00539109 29.4228 0.933666 24.8942 2.72932 20.6844C4.52497 16.4747 7.15112 12.6702 10.4507 9.49863C13.7504 6.32703 17.6557 3.8534 21.9332 2.22565C26.2107 0.597893 30.7725 -0.15055 35.3458 0.0250716C43.8672 0.436332 51.93 4.00638 57.9623 10.0392C63.9946 16.072 67.564 24.1351 67.9745 32.6566ZM31.1667 16.4131V31.7527L40.4968 41.0829L44.5032 37.0766L36.8333 29.4067V16.4131H31.1667Z" fill="white"/>
</g>
<defs>
<clipPath id="clip0_299_1094">
<rect width="68" height="68" fill="white"/>
</clipPath>
</defs>
</svg>
