<svg width="21" height="21" viewBox="0 0 21 21" fill="none" xmlns="http://www.w3.org/2000/svg">
<path d="M11.7914 10.5L20.7092 1.58219C20.799 1.49854 20.871 1.39767 20.9209 1.28559C20.9708 1.1735 20.9977 1.05251 20.9999 0.929829C21.002 0.807145 20.9795 0.685281 20.9335 0.571508C20.8875 0.457735 20.8191 0.354384 20.7324 0.26762C20.6456 0.180855 20.5423 0.112456 20.4285 0.0665008C20.3147 0.0205461 20.1929 -0.00202242 20.0702 0.000142197C19.9475 0.00230682 19.8265 0.0291602 19.7144 0.0790998C19.6023 0.12904 19.5015 0.201043 19.4178 0.290814L10.5 9.20862L1.58219 0.290814C1.40898 0.129416 1.17989 0.04155 0.943175 0.0457265C0.706462 0.049903 0.480611 0.145796 0.313203 0.313203C0.145796 0.480611 0.049903 0.706462 0.0457265 0.943175C0.04155 1.17989 0.129416 1.40898 0.290814 1.58219L9.20862 10.5L0.290814 19.4178C0.201043 19.5015 0.12904 19.6023 0.0790998 19.7144C0.0291602 19.8265 0.00230682 19.9475 0.000142197 20.0702C-0.00202242 20.1929 0.0205461 20.3147 0.0665008 20.4285C0.112456 20.5423 0.180855 20.6456 0.26762 20.7324C0.354384 20.8191 0.457735 20.8875 0.571508 20.9335C0.685281 20.9795 0.807145 21.002 0.929829 20.9999C1.05251 20.9977 1.1735 20.9708 1.28559 20.9209C1.39767 20.871 1.49854 20.799 1.58219 20.7092L10.5 11.7914L19.4178 20.7092C19.5015 20.799 19.6023 20.871 19.7144 20.9209C19.8265 20.9708 19.9475 20.9977 20.0702 20.9999C20.1929 21.002 20.3147 20.9795 20.4285 20.9335C20.5423 20.8875 20.6456 20.8191 20.7324 20.7324C20.8191 20.6456 20.8875 20.5423 20.9335 20.4285C20.9795 20.3147 21.002 20.1929 20.9999 20.0702C20.9977 19.9475 20.9708 19.8265 20.9209 19.7144C20.871 19.6023 20.799 19.5015 20.7092 19.4178L11.7914 10.5Z" fill="white"/>
</svg>
