<svg width="61" height="61" viewBox="0 0 61 61" fill="none" xmlns="http://www.w3.org/2000/svg">
<rect width="61" height="61" fill="#1E4339"/>
<path d="M18.1684 48.2331C17.9778 48.2331 17.795 48.1574 17.6603 48.0226C17.5255 47.8879 17.4498 47.7051 17.4498 47.5145V38.1479C17.4498 37.9574 17.5255 37.7746 17.6603 37.6398C17.795 37.5051 17.9778 37.4294 18.1684 37.4294C18.359 37.4294 18.5417 37.5051 18.6765 37.6398C18.8112 37.7746 18.8869 37.9574 18.8869 38.1479V47.5145C18.887 47.6089 18.8684 47.7024 18.8323 47.7896C18.7963 47.8768 18.7433 47.956 18.6766 48.0228C18.6099 48.0895 18.5306 48.1424 18.4434 48.1785C18.3562 48.2146 18.2628 48.2332 18.1684 48.2331Z" fill="white"/>
<path d="M22.8522 43.5498H13.4852C13.2946 43.5498 13.1118 43.4741 12.9771 43.3393C12.8423 43.2046 12.7666 43.0218 12.7666 42.8313C12.7666 42.6407 12.8423 42.4579 12.9771 42.3232C13.1118 42.1884 13.2946 42.1127 13.4852 42.1127H22.8522C23.0428 42.1127 23.2255 42.1884 23.3603 42.3232C23.495 42.4579 23.5707 42.6407 23.5707 42.8313C23.5707 43.0218 23.495 43.2046 23.3603 43.3393C23.2255 43.4741 23.0428 43.5498 22.8522 43.5498Z" fill="white"/>
<path d="M48.4732 17.8873H39.1061C38.9156 17.8873 38.7328 17.8116 38.598 17.6768C38.4633 17.5421 38.3876 17.3593 38.3876 17.1687C38.3876 16.9782 38.4633 16.7954 38.598 16.6607C38.7328 16.5259 38.9156 16.4502 39.1061 16.4502H48.4732C48.6637 16.4502 48.8465 16.5259 48.9812 16.6607C49.116 16.7954 49.1917 16.9782 49.1917 17.1687C49.1917 17.3593 49.116 17.5421 48.9812 17.6768C48.8465 17.8116 48.6637 17.8873 48.4732 17.8873Z" fill="white"/>
<path d="M48.4732 41.3325H39.1061C38.9156 41.3325 38.7328 41.2568 38.598 41.1221C38.4633 40.9873 38.3876 40.8046 38.3876 40.614C38.3876 40.4234 38.4633 40.2407 38.598 40.1059C38.7328 39.9712 38.9156 39.8954 39.1061 39.8954H48.4732C48.6637 39.8954 48.8465 39.9712 48.9812 40.1059C49.116 40.2407 49.1917 40.4234 49.1917 40.614C49.1917 40.8046 49.116 40.9873 48.9812 41.1221C48.8465 41.2568 48.6637 41.3325 48.4732 41.3325Z" fill="white"/>
<path d="M48.4732 45.7671H39.1061C38.9156 45.7671 38.7328 45.6914 38.598 45.5566C38.4633 45.4218 38.3876 45.2391 38.3876 45.0485C38.3876 44.8579 38.4633 44.6752 38.598 44.5404C38.7328 44.4057 38.9156 44.33 39.1061 44.33H48.4732C48.6637 44.33 48.8465 44.4057 48.9812 44.5404C49.116 44.6752 49.1917 44.8579 49.1917 45.0485C49.1917 45.2391 49.116 45.4218 48.9812 45.5566C48.8465 45.6914 48.6637 45.7671 48.4732 45.7671Z" fill="white"/>
<path d="M26.4338 54H9.90307C9.13339 53.999 8.39552 53.6928 7.85131 53.1485C7.3071 52.6042 7.00099 51.8663 7.00012 51.0966V34.5659C7.00099 33.7961 7.30716 33.0581 7.85146 32.5138C8.39575 31.9695 9.13373 31.6634 9.90348 31.6625H26.4338C27.2035 31.6635 27.9414 31.9697 28.4856 32.514C29.0298 33.0583 29.3359 33.7962 29.3368 34.5659V51.0966C29.3359 51.8663 29.0298 52.6042 28.4856 53.1485C27.9414 53.6928 27.2035 53.999 26.4338 54ZM9.90307 33.1004C9.51454 33.101 9.14207 33.2555 8.8673 33.5302C8.59253 33.8049 8.43788 34.1773 8.43722 34.5659V51.0966C8.43766 51.4854 8.59228 51.8581 8.86716 52.1329C9.14204 52.4078 9.51474 52.5624 9.90348 52.5629H26.4338C26.8225 52.5623 27.1951 52.4077 27.4699 52.1328C27.7447 51.8579 27.8992 51.4853 27.8997 51.0966V34.5659C27.8992 34.1771 27.7446 33.8044 27.4697 33.5295C27.1949 33.2547 26.8222 33.1 26.4334 33.0996L9.90307 33.1004Z" fill="white"/>
<path d="M14.8566 21.1988C14.7147 21.1985 14.576 21.1561 14.4581 21.0771C14.3401 20.998 14.2483 20.8858 14.1941 20.7546C14.1399 20.6234 14.1258 20.4791 14.1535 20.3399C14.1812 20.2006 14.2496 20.0728 14.3499 19.9723L20.9721 13.3489C21.1083 13.2217 21.2887 13.1523 21.4751 13.1555C21.6615 13.1588 21.8393 13.2343 21.9711 13.3662C22.1028 13.4981 22.1781 13.676 22.1811 13.8624C22.1841 14.0488 22.1145 14.2291 21.9871 14.3652L15.3649 20.9886C15.2982 21.0554 15.219 21.1084 15.1318 21.1444C15.0445 21.1805 14.951 21.199 14.8566 21.1988Z" fill="white"/>
<path d="M21.4804 21.1988C21.386 21.1989 21.2924 21.1805 21.2052 21.1444C21.118 21.1083 21.0387 21.0553 20.972 20.9885L14.3499 14.3651C14.2151 14.2304 14.1394 14.0476 14.1394 13.857C14.1394 13.6664 14.2151 13.4837 14.3499 13.3489C14.4846 13.2141 14.6674 13.1384 14.858 13.1384C15.0486 13.1384 15.2313 13.2141 15.3661 13.3489L21.987 19.9723C22.0875 20.0728 22.1558 20.2008 22.1835 20.3401C22.2112 20.4795 22.197 20.6239 22.1426 20.7551C22.0883 20.8864 21.9962 20.9986 21.8781 21.0775C21.76 21.1565 21.6212 21.1987 21.4791 21.1988H21.4804Z" fill="white"/>
<path d="M26.4337 28.3375H9.90294C9.13327 28.3365 8.3954 28.0303 7.85119 27.486C7.30698 26.9417 7.00087 26.2038 7 25.4341V8.90336C7.00087 8.13368 7.30698 7.39576 7.85119 6.85148C8.3954 6.30719 9.13327 6.00098 9.90294 6H26.4337C27.2034 6.00098 27.9413 6.30719 28.4855 6.85148C29.0297 7.39576 29.3358 8.13368 29.3367 8.90336V25.4341C29.3358 26.2038 29.0297 26.9417 28.4855 27.486C27.9413 28.0303 27.2034 28.3365 26.4337 28.3375ZM9.90294 7.4371C9.51427 7.43764 9.14169 7.59231 8.86689 7.86718C8.5921 8.14205 8.43754 8.51468 8.4371 8.90336V25.4341C8.43754 25.8229 8.59216 26.1956 8.86704 26.4704C9.14192 26.7453 9.51461 26.8999 9.90336 26.9004H26.4337C26.8224 26.8998 27.195 26.7452 27.4698 26.4703C27.7446 26.1954 27.8991 25.8228 27.8996 25.4341V8.90336C27.8991 8.51468 27.7446 8.14205 27.4698 7.86718C27.195 7.59231 26.8224 7.43764 26.4337 7.4371H9.90294Z" fill="white"/>
<path d="M52.0549 54H35.5245C34.7548 53.999 34.017 53.6928 33.4728 53.1485C32.9286 52.6042 32.6225 51.8663 32.6216 51.0966V34.5659C32.6225 33.7961 32.9286 33.0581 33.4729 32.5138C34.0172 31.9695 34.7552 31.6634 35.5249 31.6625H52.0553C52.825 31.6635 53.5628 31.9697 54.1071 32.514C54.6513 33.0583 54.9574 33.7962 54.9582 34.5659V51.0966C54.9574 51.8664 54.6512 52.6044 54.1069 53.1487C53.5626 53.6929 52.8246 53.9991 52.0549 54ZM35.5245 33.0996C35.1359 33.1003 34.7634 33.255 34.4886 33.5298C34.2138 33.8047 34.0592 34.1772 34.0587 34.5659V51.0966C34.0592 51.4853 34.2139 51.858 34.4887 52.1328C34.7636 52.4077 35.1362 52.5623 35.5249 52.5629H52.0553C52.4441 52.5626 52.8169 52.408 53.0919 52.1331C53.3668 51.8582 53.5215 51.4854 53.522 51.0966V34.5659C53.5215 34.177 53.3668 33.8043 53.0919 33.5294C52.8169 33.2545 52.4441 33.0999 52.0553 33.0996H35.5245Z" fill="white"/>
<path d="M52.0549 28.3375H35.5245C34.7548 28.3365 34.017 28.0303 33.4728 27.486C32.9286 26.9417 32.6225 26.2038 32.6216 25.4341V8.90336C32.6225 8.13368 32.9286 7.39576 33.4728 6.85148C34.017 6.30719 34.7548 6.00098 35.5245 6H52.0549C52.8246 6.00087 53.5626 6.30704 54.1069 6.85133C54.6512 7.39563 54.9574 8.1336 54.9582 8.90336V25.4341C54.9574 26.2039 54.6512 26.9419 54.1069 27.4861C53.5626 28.0304 52.8246 28.3366 52.0549 28.3375ZM35.5245 7.4371C35.1359 7.43775 34.7634 7.59246 34.4886 7.8673C34.2138 8.14215 34.0592 8.51472 34.0587 8.90336V25.4341C34.0592 25.8228 34.2139 26.1955 34.4887 26.4703C34.7636 26.7452 35.1362 26.8998 35.5249 26.9004H52.0553C52.444 26.8998 52.8166 26.7452 53.0914 26.4703C53.3661 26.1954 53.5207 25.8228 53.5211 25.4341V8.90336C53.5207 8.51454 53.366 8.14179 53.0911 7.86689C52.8161 7.592 52.4433 7.43743 52.0545 7.4371H35.5245Z" fill="white"/>
</svg>
