<svg width="48" height="44" viewBox="0 0 48 44" fill="none" xmlns="http://www.w3.org/2000/svg">
<path d="M46.0722 36.9678L30.3108 21.2143L36.0308 15.5021C36.6252 15.6446 37.2345 15.7159 37.8458 15.7143C38.8776 15.7143 39.8993 15.511 40.8526 15.1162C41.8058 14.7213 42.672 14.1426 43.4016 13.413C44.1312 12.6834 44.7099 11.8172 45.1048 10.8639C45.4997 9.91066 45.7029 8.88895 45.7029 7.85714C45.7059 6.85282 45.5137 5.85748 45.1372 4.92642C45.0886 4.80539 45.0107 4.69835 44.9105 4.61494C44.8102 4.53153 44.6908 4.47439 44.5629 4.44867C44.4351 4.42294 44.3029 4.42944 44.1782 4.46758C44.0534 4.50572 43.9402 4.5743 43.8486 4.66714L39.92 8.59571L37.665 8.03785L37.1072 5.78285L41.0358 1.89357C41.1286 1.80198 41.1972 1.68873 41.2353 1.56403C41.2735 1.43932 41.28 1.30708 41.2542 1.17924C41.2285 1.05139 41.1714 0.93196 41.088 0.831711C41.0045 0.731462 40.8975 0.65355 40.7765 0.605C39.7464 0.197204 38.6424 0.00959733 37.5354 0.0542538C36.4285 0.0989102 35.3432 0.37484 34.3493 0.864285C34.2496 0.90582 34.1595 0.967481 34.0846 1.04541C34.0098 1.12335 33.9519 1.21588 33.9144 1.31722C33.8769 1.41857 33.8608 1.52655 33.8669 1.63442C33.8731 1.74229 33.9014 1.84773 33.9502 1.94415C33.9989 2.04057 34.0671 2.1259 34.1503 2.19481C34.2335 2.26372 34.33 2.31472 34.4339 2.34463C34.5377 2.37454 34.6466 2.38272 34.7537 2.36865C34.8608 2.35458 34.9639 2.31856 35.0565 2.26286C36.2738 1.66513 37.6504 1.47241 38.985 1.71286L35.7165 4.98142C35.6141 5.08138 35.541 5.20739 35.505 5.34585C35.469 5.48432 35.4715 5.62998 35.5122 5.76714L36.2979 8.90999C36.3323 9.04873 36.4039 9.17545 36.5049 9.27652C36.606 9.37759 36.7327 9.44917 36.8715 9.48356L40.0143 10.2693C40.1515 10.31 40.2971 10.3125 40.4356 10.2765C40.5741 10.2405 40.7001 10.1673 40.8 10.065L44.0686 6.79642C44.1205 7.14748 44.1415 7.50241 44.1315 7.85714C44.1316 8.83786 43.9022 9.805 43.4616 10.6812C43.0211 11.5574 42.3817 12.3184 41.5944 12.9033C40.8072 13.4882 39.894 13.8807 38.928 14.0496C37.9619 14.2184 36.9697 14.1589 36.0308 13.8757C35.895 13.833 35.7502 13.828 35.6118 13.8612C35.4734 13.8945 35.3467 13.9646 35.245 14.0643L29.2029 20.1064L25.5965 16.5L31.6386 10.4657C31.7383 10.3641 31.8084 10.2373 31.8416 10.0989C31.8749 9.96056 31.8699 9.81576 31.8272 9.67999C31.5343 8.70154 31.4843 7.66646 31.6814 6.66432C31.8786 5.66218 32.317 4.72318 32.9586 3.92857C33.0236 3.84809 33.0721 3.75559 33.1014 3.65636C33.1307 3.55713 33.1401 3.45311 33.1291 3.35023C33.1182 3.24736 33.0871 3.14765 33.0376 3.05679C32.9881 2.96594 32.9212 2.88572 32.8408 2.82071C32.7603 2.75571 32.6678 2.70719 32.5686 2.67793C32.4693 2.64868 32.3653 2.63925 32.2624 2.6502C32.1595 2.66114 32.0598 2.69224 31.969 2.74172C31.8781 2.7912 31.7979 2.85809 31.7329 2.93857C30.6081 4.33148 29.9927 6.06677 29.9886 7.85714C29.987 8.46841 30.0583 9.0777 30.2008 9.67214L24.4886 15.3921L20.4893 11.3928L21.1179 10.7721C21.1916 10.6991 21.25 10.6122 21.2899 10.5164C21.3298 10.4207 21.3503 10.318 21.3503 10.2143C21.3503 10.1106 21.3298 10.0079 21.2899 9.91211C21.25 9.81636 21.1916 9.72946 21.1179 9.65642L18.7608 7.29928C18.66 7.23037 18.5743 7.14177 18.5088 7.03883C18.4432 6.93589 18.3992 6.82073 18.3794 6.70032C18.3596 6.5799 18.3644 6.45672 18.3934 6.33819C18.4225 6.21967 18.4753 6.10827 18.5486 6.01071C19.3343 4.85571 22.3515 3.97571 25.7536 5.43714C25.9134 5.50453 26.0909 5.51718 26.2586 5.47312C26.4263 5.42907 26.5748 5.33078 26.6808 5.19357C26.7884 5.05551 26.8469 4.88544 26.8469 4.71035C26.8469 4.53527 26.7884 4.3652 26.6808 4.22714C26.5393 4.05428 23.2865 0 18.0222 0C16.62 0.0445863 15.2404 0.36525 13.9623 0.943638C12.6841 1.52203 11.5326 2.34678 10.5736 3.37071L5.07364 8.87071C4.99999 8.94375 4.94154 9.03065 4.90165 9.1264C4.86176 9.22214 4.84122 9.32484 4.84122 9.42856C4.84122 9.53229 4.86176 9.63498 4.90165 9.73073C4.94154 9.82648 4.99999 9.91338 5.07364 9.98642L5.46649 10.3793C5.55769 10.4585 5.63161 10.5556 5.68365 10.6646C5.73569 10.7736 5.76473 10.8921 5.76898 11.0128C5.77323 11.1335 5.75259 11.2538 5.70834 11.3661C5.66409 11.4785 5.59718 11.5806 5.51178 11.666C5.42638 11.7514 5.32431 11.8183 5.21194 11.8625C5.09956 11.9068 4.97927 11.9274 4.85857 11.9232C4.73787 11.9189 4.61934 11.8899 4.51035 11.8379C4.40136 11.7858 4.30425 11.7119 4.22507 11.6207L3.83221 11.2278C3.75917 11.1542 3.67227 11.0958 3.57652 11.0559C3.48077 11.016 3.37808 10.9954 3.27435 10.9954C3.17063 10.9954 3.06793 11.016 2.97219 11.0559C2.87644 11.0958 2.78954 11.1542 2.7165 11.2278L0.689354 13.2628C0.247939 13.7048 0 14.3039 0 14.9286C0 15.5532 0.247939 16.1523 0.689354 16.5943L5.53721 21.4421C5.97917 21.8835 6.57828 22.1315 7.20292 22.1315C7.82757 22.1315 8.42667 21.8835 8.86863 21.4421L10.9036 19.415C10.9773 19.3419 11.0357 19.255 11.0756 19.1593C11.1155 19.0635 11.136 18.9609 11.136 18.8571C11.136 18.7534 11.1155 18.6507 11.0756 18.555C11.0357 18.4592 10.9773 18.3723 10.9036 18.2993L10.5108 17.9064C10.3648 17.7383 10.2879 17.521 10.2958 17.2985C10.3036 17.076 10.3955 16.8647 10.553 16.7072C10.7104 16.5497 10.9217 16.4578 11.1443 16.45C11.3668 16.4422 11.5841 16.519 11.7522 16.665L12.9308 17.8436C13.0038 17.9172 13.0907 17.9757 13.1865 18.0155C13.2822 18.0554 13.3849 18.076 13.4886 18.076C13.5924 18.076 13.6951 18.0554 13.7908 18.0155C13.8865 17.9757 13.9734 17.9172 14.0465 17.8436L14.6672 17.215L18.6665 21.2143L11.3751 28.4978C10.7806 28.3553 10.1713 28.2841 9.56006 28.2857C7.47622 28.2857 5.47773 29.1135 4.00423 30.587C2.53073 32.0605 1.70292 34.059 1.70292 36.1428C1.69914 37.1472 1.8913 38.1427 2.26864 39.0735C2.31719 39.1946 2.3951 39.3016 2.49535 39.385C2.5956 39.4684 2.71503 39.5256 2.84288 39.5513C2.97072 39.577 3.10296 39.5705 3.22767 39.5324C3.35237 39.4942 3.46562 39.4257 3.55721 39.3328L7.48578 35.4043L9.74078 35.9621L10.2986 38.2171L6.37006 42.1457C6.27723 42.2373 6.20865 42.3505 6.17051 42.4752C6.13237 42.5999 6.12587 42.7322 6.15159 42.86C6.17732 42.9879 6.23446 43.1073 6.31787 43.2075C6.40127 43.3078 6.50832 43.3857 6.62935 43.4342C7.56041 43.8108 8.55574 44.0029 9.56006 44C10.7471 44.0003 11.9188 43.7317 12.9871 43.2143C14.0554 42.6969 14.9926 41.9441 15.7283 41.0126C16.464 40.0811 16.9791 38.9949 17.2349 37.8358C17.4906 36.6766 17.4804 35.4746 17.2051 34.32L24.4886 27.0364L38.0736 40.6293C38.1467 40.7029 38.2336 40.7613 38.3293 40.8012C38.4251 40.8411 38.5277 40.8617 38.6315 40.8617C38.7352 40.8617 38.8379 40.8411 38.9336 40.8012C39.0294 40.7613 39.1163 40.7029 39.1893 40.6293C39.263 40.5562 39.3214 40.4693 39.3613 40.3736C39.4012 40.2778 39.4217 40.1751 39.4217 40.0714C39.4217 39.9677 39.4012 39.865 39.3613 39.7692C39.3214 39.6735 39.263 39.5866 39.1893 39.5135L15.7751 16.1071L19.3815 12.5007L44.9565 38.0835C45.4103 38.5654 45.6586 39.2052 45.6487 39.8671C45.6388 40.529 45.3715 41.161 44.9034 41.629C44.4353 42.0971 43.8033 42.3645 43.1414 42.3744C42.4795 42.3843 41.8398 42.136 41.3579 41.6821L39.1893 39.5135C39.0414 39.3656 38.8407 39.2825 38.6315 39.2825C38.4222 39.2825 38.2216 39.3656 38.0736 39.5135C37.9257 39.6615 37.8425 39.8622 37.8425 40.0714C37.8425 40.2806 37.9257 40.4813 38.0736 40.6293L40.2422 42.7978C41.0241 43.5265 42.0584 43.9231 43.1271 43.9043C44.1957 43.8854 45.2153 43.4525 45.9711 42.6967C46.7269 41.941 47.1598 40.9214 47.1786 39.8527C47.1975 38.784 46.8008 37.7498 46.0722 36.9678ZM15.7672 33.5343C15.6676 33.6359 15.5974 33.7626 15.5642 33.901C15.531 34.0394 15.536 34.1842 15.5786 34.32C15.8633 35.2594 15.924 36.2525 15.7558 37.2196C15.5877 38.1867 15.1954 39.101 14.6103 39.8892C14.0253 40.6774 13.2637 41.3176 12.3868 41.7586C11.5098 42.1996 10.5417 42.429 9.56006 42.4285C9.17794 42.4304 8.79649 42.3962 8.42078 42.3264L11.6893 39.0578C11.7917 38.9579 11.8648 38.8319 11.9008 38.6934C11.9368 38.5549 11.9343 38.4093 11.8936 38.2721L11.1079 35.1293C11.0735 34.9905 11.0019 34.8638 10.9009 34.7627C10.7998 34.6617 10.6731 34.5901 10.5343 34.5557L7.39149 33.77C7.25434 33.7293 7.10867 33.7268 6.97021 33.7628C6.83174 33.7988 6.70574 33.8719 6.60578 33.9743L3.3765 37.2821C3.31097 36.9058 3.2768 36.5248 3.27435 36.1428C3.27426 35.1621 3.50365 34.195 3.94418 33.3188C4.38471 32.4425 5.02416 31.6816 5.81138 31.0967C6.59861 30.5118 7.51177 30.1192 8.47785 29.9504C9.44393 29.7815 10.4361 29.8411 11.3751 30.1243C11.5108 30.1669 11.6556 30.1719 11.794 30.1387C11.9324 30.1055 12.0592 30.0353 12.1608 29.9357L19.7743 22.3221L23.3808 25.9286L15.7672 33.5343ZM7.76078 20.3343C7.68774 20.4079 7.60084 20.4664 7.50509 20.5063C7.40934 20.5461 7.30664 20.5667 7.20292 20.5667C7.0992 20.5667 6.9965 20.5461 6.90075 20.5063C6.80501 20.4664 6.71811 20.4079 6.64506 20.3343L1.79721 15.4864C1.72357 15.4134 1.66511 15.3265 1.62522 15.2307C1.58533 15.135 1.5648 15.0323 1.5648 14.9286C1.5648 14.8248 1.58533 14.7221 1.62522 14.6264C1.66511 14.5306 1.72357 14.4437 1.79721 14.3707L3.27435 12.8936L9.23792 18.8571L7.76078 20.3343ZM12.8679 15.5493C12.4059 15.0915 11.7819 14.8347 11.1315 14.8347C10.4811 14.8347 9.85707 15.0915 9.39506 15.5493C9.18106 15.7635 9.01033 16.0169 8.89221 16.2957L5.84364 13.2393C6.19025 13.0854 6.49643 12.8532 6.73811 12.5609C6.97978 12.2687 7.15035 11.9243 7.23641 11.555C7.32246 11.1856 7.32165 10.8014 7.23404 10.4324C7.14642 10.0634 6.9744 9.7198 6.73149 9.42856L11.6893 4.47857C13.338 2.7174 15.6119 1.67354 18.0222 1.57143C19.8175 1.59779 21.5668 2.14359 23.0586 3.14285C20.3951 2.89928 18.1558 3.78714 17.2443 5.13071C16.8924 5.63052 16.7385 6.24319 16.8126 6.84998C16.8866 7.45677 17.1833 8.01447 17.6451 8.41499L19.4522 10.2143L13.4886 16.1778L12.8679 15.5493Z" fill="black"/>
</svg>
