<svg width="37" height="44" viewBox="0 0 37 44" fill="none" xmlns="http://www.w3.org/2000/svg">
<path fill-rule="evenodd" clip-rule="evenodd" d="M2.68094 1.12756C1.82447 1.12756 1.12757 1.82437 1.12757 2.68063V41.3195C1.12757 42.1757 1.82447 42.8725 2.68084 42.8725L33.6853 42.8724C34.5408 42.8724 35.2376 42.1758 35.2376 41.3196L35.2377 2.68073C35.2377 1.82427 34.5408 1.12777 33.6853 1.12777L2.68094 1.12756ZM33.6854 43.9999H2.68094C1.20298 43.9999 0 42.7976 0 41.3195V2.68065C0 1.2025 1.20299 0.000202898 2.68084 0.000202898L33.6853 0C35.1633 0 36.3652 1.20268 36.3652 2.68063V41.3195C36.3652 42.7976 35.1634 43.9999 33.6854 43.9999Z" fill="white"/>
<path fill-rule="evenodd" clip-rule="evenodd" d="M18.2438 36.6116H15.6942C15.3829 36.6116 15.1304 36.3593 15.1304 36.048C15.1305 35.7365 15.3829 35.4844 15.6941 35.4844H18.2438C18.5551 35.4844 18.8075 35.7367 18.8075 36.048C18.8076 36.3593 18.5551 36.6118 18.2438 36.6116Z" fill="white"/>
<path fill-rule="evenodd" clip-rule="evenodd" d="M18.2434 36.6016C18.0125 36.6016 17.7951 36.4582 17.7129 36.2281C17.6073 35.9349 17.7599 35.6121 18.0535 35.5069C18.9687 35.1783 18.9687 35.1784 19.4297 34.4119C19.5511 34.2092 19.7027 33.9571 19.9004 33.6471C20.0149 33.4687 20.2196 33.3692 20.43 33.3899C20.6414 33.4103 20.8225 33.5471 20.8998 33.744C21.0212 34.051 21.12 34.2874 21.2013 34.4694C21.3482 34.0699 21.5477 33.5626 21.8502 33.0729C21.9315 32.9423 22.0616 32.8505 22.2113 32.8185C22.3611 32.7862 22.5187 32.8167 22.6459 32.9027C22.8799 33.061 22.9963 33.3379 23.1353 33.6887C23.1755 33.5999 23.2136 33.5117 23.2489 33.4298C23.4504 32.9641 23.61 32.5965 24.0407 32.569C24.2805 32.5532 24.5026 32.677 24.6348 32.899C24.7415 33.0776 24.7943 33.2789 24.8462 33.4737C24.8756 33.5818 24.9206 33.7533 24.9627 33.8321C25.0743 33.8168 25.4706 33.7004 26.4348 32.8829C26.6726 32.6813 27.0278 32.7108 27.2295 32.9483C27.4311 33.1857 27.4018 33.5414 27.164 33.7429C25.9738 34.7523 25.2073 35.1021 24.6025 34.9127C24.3246 34.8254 24.1435 34.6503 24.0192 34.449C23.935 34.6085 23.841 34.7659 23.7323 34.9069C23.471 35.2474 23.1666 35.2609 23.008 35.2385C22.6841 35.1928 22.4844 34.9616 22.3308 34.6689C22.2867 34.7821 22.2476 34.891 22.2094 34.9934C21.9932 35.5844 21.8061 36.095 21.2658 36.1018C20.8596 36.1063 20.5905 35.8175 20.2832 35.1783C19.786 35.988 19.5667 36.1619 18.4343 36.5683C18.3707 36.5907 18.307 36.6016 18.2434 36.6016Z" fill="white"/>
<path fill-rule="evenodd" clip-rule="evenodd" d="M12.3332 41.1218C11.6326 41.1218 10.7212 40.9698 9.43317 40.6572C9.1308 40.5837 8.94475 40.279 9.01823 39.9764C9.09162 39.6736 9.39704 39.4879 9.69941 39.5615C11.5953 40.0215 12.5956 40.1041 13.1525 39.8463C13.688 39.5985 14.005 38.9267 14.5317 37.8136C14.5825 37.7048 14.6354 37.5925 14.6911 37.4765C15.4556 35.8692 16.309 29.6076 16.078 28.1875C16.031 27.8965 16.2161 27.6185 16.5019 27.5491C16.7886 27.4799 17.0804 27.6427 17.1714 27.923C17.8937 30.1493 18.5044 33.1645 18.805 35.9884C18.9312 37.1763 18.9948 38.2645 18.9948 39.2225C18.9949 39.5338 18.7432 39.7863 18.431 39.7863C18.1198 39.7862 17.8673 39.5339 17.8673 39.2225C17.8673 38.304 17.8056 37.2561 17.6833 36.1076C17.5336 34.6951 17.3045 33.2355 17.0216 31.8575C16.7407 34.2094 16.2268 36.8725 15.7091 37.961C15.6543 38.0759 15.6014 38.1874 15.5505 38.2952C14.9379 39.5928 14.5326 40.4501 13.6263 40.8696C13.2661 41.0366 12.8579 41.1219 12.3332 41.1218Z" fill="white"/>
<path fill-rule="evenodd" clip-rule="evenodd" d="M5.83148 7.55992H15.1406L10.4866 4.1434L5.83148 7.55992ZM16.8613 8.6875H4.11094C3.86714 8.6875 3.65084 8.53098 3.57441 8.29936C3.4991 8.06753 3.5803 7.81358 3.77701 7.66934L10.1528 2.98964C10.3515 2.84388 10.6216 2.84398 10.8193 2.98974L17.195 7.66913C17.3918 7.81337 17.4729 8.06773 17.3976 8.29935C17.3213 8.53088 17.105 8.6876 16.8613 8.6875Z" fill="white"/>
<path fill-rule="evenodd" clip-rule="evenodd" d="M15.679 17.2537H5.29333C4.98213 17.2537 4.72949 17.0015 4.72949 16.6902V8.1237C4.72949 7.81229 4.98203 7.56006 5.29333 7.56006C5.60453 7.55996 5.85707 7.81249 5.85707 8.1239V16.1262H15.1153V8.12369C15.1153 7.81229 15.3678 7.56006 15.679 7.56006C15.9903 7.55996 16.2427 7.81249 16.2427 8.1239V16.69C16.2427 17.0014 15.9903 17.2539 15.679 17.2537Z" fill="white"/>
<path fill-rule="evenodd" clip-rule="evenodd" d="M12.2895 17.2538C11.9783 17.2538 11.7256 17.0016 11.7256 16.6903V12.6756H9.24647V16.6901C9.24647 17.0015 8.99394 17.254 8.68263 17.254C8.37143 17.2538 8.1189 17.0016 8.1189 16.6903L8.119 12.1121C8.119 11.8007 8.37143 11.5483 8.68263 11.5483H12.2895C12.6008 11.5483 12.8532 11.8007 12.8532 12.1122V16.6901C12.8532 17.0015 12.6007 17.254 12.2895 17.2538Z" fill="white"/>
<path fill-rule="evenodd" clip-rule="evenodd" d="M32.2558 6.06033H18.9239C18.6126 6.06033 18.3601 5.8081 18.3601 5.4967C18.3601 5.18519 18.6126 4.93296 18.9238 4.93296L32.2558 4.93286C32.567 4.93286 32.8195 5.1854 32.8195 5.4967C32.8196 5.808 32.567 6.06043 32.2558 6.06033Z" fill="white"/>
<path fill-rule="evenodd" clip-rule="evenodd" d="M32.2558 10.631H18.9239C18.6126 10.631 18.3601 10.3786 18.3601 10.0673C18.3601 9.75585 18.6126 9.50342 18.9238 9.50342H32.2558C32.567 9.50342 32.8195 9.75585 32.8195 10.0673C32.8196 10.3784 32.567 10.631 32.2558 10.631Z" fill="white"/>
<path fill-rule="evenodd" clip-rule="evenodd" d="M32.2558 15.2017H18.9239C18.6126 15.2017 18.3601 14.9494 18.3601 14.638C18.3601 14.3266 18.6126 14.0742 18.9238 14.0742H32.2558C32.567 14.0742 32.8195 14.3267 32.8195 14.638C32.8196 14.9494 32.567 15.2017 32.2558 15.2017Z" fill="white"/>
<path fill-rule="evenodd" clip-rule="evenodd" d="M31.6643 20.0597H4.70202C4.39072 20.0597 4.13818 19.8074 4.13818 19.4961C4.13829 19.1846 4.39072 18.9323 4.70192 18.9323L31.6642 18.9321C31.9754 18.9321 32.2278 19.1847 32.2278 19.4961C32.2279 19.8074 31.9754 20.0597 31.6643 20.0597Z" fill="white"/>
<path fill-rule="evenodd" clip-rule="evenodd" d="M31.6643 24.6302H4.70202C4.39072 24.6302 4.13818 24.3779 4.13818 24.0666C4.13829 23.7552 4.39072 23.5028 4.70192 23.5028L31.6642 23.5027C31.9754 23.5027 32.2278 23.7553 32.2278 24.0666C32.2279 24.3778 31.9754 24.6304 31.6643 24.6302Z" fill="white"/>
</svg>
