<svg width="47" height="44" viewBox="0 0 47 44" fill="none" xmlns="http://www.w3.org/2000/svg">
<path fill-rule="evenodd" clip-rule="evenodd" d="M45.271 5.08425C45.2393 5.49253 45.5412 5.84951 45.9452 5.88152C46.3492 5.91352 46.7024 5.60849 46.7341 5.20021L46.9972 1.94056H46.997C47.0006 1.89408 46.9998 1.84658 46.9944 1.79853C46.9485 1.39183 46.585 1.09979 46.1825 1.14626L42.9687 1.5294C42.5662 1.57579 42.2772 1.94316 42.3232 2.34986C42.3691 2.75656 42.7326 3.0486 43.1351 3.00213L44.3186 2.86102L35.9339 11.6719L27.1579 7.29728C26.8937 7.14235 26.5507 7.16554 26.3075 7.37947L20.6235 12.3826C20.7327 11.7732 20.79 11.1458 20.79 10.5051C20.79 4.71262 16.1269 0 10.3951 0C4.66328 0 0 4.71252 0 10.505C0 16.2974 4.6631 21.01 10.3948 21.01C14.4787 21.01 18.0194 18.6172 19.7182 15.1465L26.904 8.82158L35.766 13.2391C36.0659 13.3886 36.418 13.3116 36.6322 13.0734L45.367 3.89466L45.271 5.08425ZM10.3949 19.5257C5.47302 19.5257 1.46875 15.479 1.46875 10.505C1.46875 5.53094 5.47302 1.48422 10.3948 1.48422C15.3167 1.48422 19.3209 5.53094 19.3209 10.505C19.3209 15.479 15.3168 19.5257 10.3949 19.5257ZM23.0962 20.6827H18.9403C18.0292 20.6827 17.2879 21.4318 17.2879 22.3525V42.33C17.2879 43.2508 18.0292 43.9999 18.9403 43.9999H23.0962C24.0073 43.9999 24.7485 43.2508 24.7485 42.33V22.3526C24.7485 21.4318 24.0073 20.6827 23.0962 20.6827ZM23.2798 42.3301C23.2798 42.4307 23.1957 42.5157 23.0962 42.5157H18.9403C18.8408 42.5157 18.7567 42.4307 18.7567 42.3301V22.3526C18.7567 22.2521 18.8408 22.1671 18.9403 22.1671H23.0962C23.1957 22.1671 23.2798 22.2521 23.2798 22.3526V42.3301ZM34.2221 24.8124H30.0661C29.1551 24.8124 28.4138 25.5615 28.4138 26.4823V42.3301C28.4138 43.2509 29.1551 44 30.0661 44H34.2221C35.1331 44 35.8744 43.2509 35.8744 42.3301V26.4823C35.8744 25.5615 35.1331 24.8124 34.2221 24.8124ZM34.4057 42.3301C34.4057 42.4307 34.3216 42.5157 34.2221 42.5157H30.0661C29.9666 42.5157 29.8825 42.4307 29.8825 42.3301V26.4823C29.8825 26.3817 29.9666 26.2967 30.0661 26.2967H34.2221C34.3216 26.2967 34.4057 26.3817 34.4057 26.4823V42.3301ZM45.3477 12.7396H41.1917C40.2807 12.7396 39.5394 13.4887 39.5394 14.4095V42.33C39.5394 43.2508 40.2807 43.9999 41.1917 43.9999H45.3477C46.2587 43.9999 47 43.2508 47 42.33V14.4095C47 13.4887 46.2587 12.7396 45.3477 12.7396ZM45.5312 42.33C45.5312 42.4306 45.4472 42.5156 45.3477 42.5156H41.1917C41.0922 42.5156 41.0081 42.4306 41.0081 42.33V14.4095C41.0081 14.3089 41.0922 14.2239 41.1917 14.2239H45.3477C45.4472 14.2239 45.5312 14.3089 45.5312 14.4095V42.33ZM11.9704 30.8989H7.81458C6.90349 30.8989 6.16223 31.648 6.16223 32.5687V42.33C6.16223 43.2508 6.90349 43.9999 7.81458 43.9999H11.9704C12.8815 43.9999 13.6227 43.2508 13.6227 42.33V32.5687C13.6227 31.648 12.8815 30.8989 11.9704 30.8989ZM12.154 42.33C12.154 42.4306 12.0699 42.5156 11.9704 42.5156H7.81458C7.71507 42.5156 7.63098 42.4306 7.63098 42.33V32.5687C7.63098 32.4682 7.71507 32.3832 7.81458 32.3832H11.9704C12.0699 32.3832 12.154 32.4682 12.154 32.5687V42.33ZM14.183 12.7061C14.294 13.6169 13.9781 14.5627 13.1491 15.1984C12.5782 15.6362 11.8446 15.8942 11.1293 15.9947V16.6829C11.1293 17.0928 10.8005 17.4251 10.3949 17.4251C9.98934 17.4251 9.66052 17.0928 9.66052 16.6829V15.981C9.06696 15.8838 8.4992 15.6715 8.01313 15.3443C7.32943 14.8841 6.80564 14.2054 6.58431 13.3079C6.48765 12.9109 6.72788 12.5098 7.12078 12.4121C7.51367 12.3145 7.9105 12.5572 8.00717 12.9543C8.1321 13.4608 8.43099 13.8461 8.82214 14.1094C9.78408 14.7568 11.3357 14.7345 12.2655 14.0214C13.0856 13.3926 12.7848 12.233 11.9896 11.7478C11.5073 11.4536 10.8764 11.2983 10.2861 11.2004C9.56992 11.0815 8.79414 10.8663 8.16451 10.4509C6.5408 9.37968 6.49224 7.02277 7.97485 5.80452C8.43044 5.43019 8.99637 5.17322 9.59947 5.05048L9.66061 5.03852V4.32697C9.66061 3.91711 9.98943 3.58481 10.395 3.58481C10.8005 3.58481 11.1294 3.91711 11.1294 4.32697V5.0272C11.2282 5.04445 11.3265 5.0656 11.4239 5.09047C12.4678 5.35792 13.4173 6.05147 13.916 7.252C14.0728 7.62986 13.8969 8.06467 13.5231 8.22321C13.1492 8.38166 12.7189 8.20392 12.562 7.82607C12.205 6.96609 11.3282 6.45576 10.412 6.4553C9.43534 6.45474 8.2955 7.04773 8.34957 8.17377C8.40189 9.26288 9.65648 9.59565 10.5214 9.73916C11.2642 9.86236 12.074 10.0674 12.7469 10.478C13.5713 10.9811 14.0759 11.8272 14.183 12.7061Z" fill="white"/>
</svg>
