<svg width="55" height="44" viewBox="0 0 55 44" fill="none" xmlns="http://www.w3.org/2000/svg">
<path d="M3.27588 44C3.1877 44 3.09953 44 3.05566 43.9557C2.83544 43.9118 2.61522 43.7355 2.52705 43.5153L0.104634 39.0227C-0.115586 38.5823 0.0164599 38.0541 0.456899 37.8339L1.91069 37.0407L1.11756 35.3672C0.941639 34.971 1.07368 34.4863 1.42595 34.2661L3.01179 33.2531L2.17478 31.4914C1.99843 31.0948 2.13091 30.6105 2.48317 30.3903L4.11288 29.2892L3.27588 27.4393C3.1877 27.2633 3.1877 27.0431 3.23201 26.8668L4.90559 20.4804C2.26296 18.058 1.20573 14.2261 2.21865 10.5705C2.92361 8.05996 4.55332 5.94594 6.84326 4.6685C9.13363 3.39148 11.7324 3.08309 14.2868 3.78762C19.4839 5.24141 22.5231 10.6587 21.0255 15.8558C20.0125 19.5557 16.9733 22.5063 13.538 23.2112L8.51727 40.7406C8.47297 40.9608 8.29705 41.1372 8.1207 41.2692L3.71632 43.8237C3.58427 43.9557 3.40792 44 3.27588 44ZM2.04274 38.9788L3.62814 41.8856L6.93143 39.9479L11.9965 22.2422C12.0847 21.8899 12.393 21.6697 12.7014 21.6254C15.6963 21.2292 18.3828 18.6748 19.308 15.4154C20.4969 11.143 18.0306 6.73865 13.7582 5.54937C11.6881 4.97689 9.53019 5.24141 7.68026 6.25433C5.83034 7.31113 4.46515 9.02901 3.89266 11.0549C3.01179 14.1822 4.02471 17.4855 6.44712 19.4675C6.71121 19.6877 6.84326 20.04 6.75552 20.3922L5.03763 26.9988L6.05056 29.2453C6.2269 29.6415 6.09486 30.0819 5.74216 30.3464L4.11288 31.4032L4.94946 33.1211C5.12581 33.5172 4.99376 34.002 4.64107 34.2222L3.05566 35.2351L3.89266 36.953C4.11288 37.3934 3.93654 37.8777 3.53997 38.098L2.04274 38.9788Z" fill="black"/>
<path d="M12.4814 13.1695C12.2169 13.1695 11.9085 13.1252 11.6444 13.0371C10.8517 12.8168 10.1911 12.2887 9.75063 11.5837C9.35406 10.8792 9.26589 10.0422 9.48611 9.24946C9.97085 7.61975 11.6883 6.6507 13.318 7.09114C14.1107 7.31135 14.7714 7.83997 15.2118 8.54493C15.6084 9.24946 15.6965 10.0865 15.4763 10.8792C15.0798 12.2887 13.8466 13.1695 12.4814 13.1695ZM12.4814 8.76515C11.9085 8.76515 11.336 9.16128 11.204 9.73377C11.1158 10.0865 11.1601 10.4387 11.336 10.7471C11.5124 11.0551 11.8208 11.2753 12.1287 11.3635C12.8337 11.5837 13.5825 11.1433 13.8027 10.4387C13.8905 10.0865 13.8466 9.73377 13.6703 9.4258C13.4944 9.11741 13.186 8.89719 12.8776 8.80902C12.7017 8.76515 12.6135 8.76515 12.4814 8.76515Z" fill="black"/>
<path d="M20.0564 16.8685C18.1626 16.8685 16.4009 16.2521 14.9036 15.1067C14.5071 14.7983 14.4632 14.2702 14.7273 13.8736C15.0357 13.477 15.5643 13.4332 15.9604 13.6972C17.1497 14.6224 18.5592 15.0629 20.0564 15.0629C21.2457 15.0629 22.4349 14.7545 23.4479 14.1377C23.8883 13.8736 24.4169 14.0499 24.6371 14.4461C24.9012 14.8865 24.7253 15.4151 24.3287 15.6353C23.0517 16.4724 21.5541 16.8685 20.0564 16.8685Z" fill="black"/>
<path d="M12.5249 8.7649H12.481C11.9963 8.7206 11.644 8.32446 11.644 7.83972C11.9524 3.43534 15.6519 0 20.0562 0C23.9763 0 27.456 2.77468 28.2925 6.65045C28.3807 7.13519 28.1166 7.57563 27.6319 7.70768C27.1476 7.79585 26.7071 7.53133 26.5751 7.04702C25.9144 3.92008 23.1836 1.71788 20.0562 1.71788C16.577 1.71788 13.626 4.44826 13.4058 7.9279C13.3619 8.36833 12.9654 8.7649 12.5249 8.7649Z" fill="black"/>
<path d="M40.7571 37.4811C40.5369 37.4811 40.3167 37.3934 40.1408 37.217L25.1659 22.2421C24.8136 21.8898 24.0205 20.9647 24.0205 19.8636L23.0957 10.13C23.0957 10.0862 23.0957 10.0862 23.0957 10.0419C23.0957 8.8526 23.448 7.97172 24.2407 7.13514C25.0338 6.34244 25.9147 5.98975 26.9276 5.98975H27.1478H27.236L36.9695 6.87062C38.1145 6.87062 38.9954 7.70763 39.3481 8.01602L54.323 22.9909C54.6752 23.3432 54.6752 23.8718 54.323 24.2241L41.3739 37.217C41.2419 37.3934 41.0216 37.4811 40.7571 37.4811ZM24.8575 9.998L25.7822 19.7315V19.8197C25.7822 20.172 26.0467 20.6124 26.4429 21.009L40.8014 35.3671L52.473 23.6516L38.1145 9.29304C37.7184 8.8969 37.2336 8.63238 36.9256 8.63238C36.8813 8.63238 36.8813 8.63238 36.8375 8.63238L26.9276 7.70763C26.399 7.70763 25.9586 7.92785 25.5181 8.36829C25.0338 8.8526 24.8575 9.29304 24.8575 9.998Z" fill="black"/>
<path d="M34.1066 22.0219C33.8864 22.0219 33.6661 21.9337 33.4898 21.7578C33.1375 21.4051 33.1375 20.8769 33.4898 20.5242L37.7621 16.2523C38.1144 15.8996 38.643 15.8996 38.9953 16.2523C39.348 16.6046 39.348 17.1332 38.9953 17.4855L34.7234 21.7578C34.547 21.9337 34.3268 22.0219 34.1066 22.0219Z" fill="black"/>
<path d="M39.0835 26.9989C38.8633 26.9989 38.6431 26.9107 38.4672 26.7348C38.1145 26.3825 38.1145 25.8539 38.4672 25.5016L42.7391 21.2293C43.0918 20.877 43.6199 20.877 43.9726 21.2293C44.3249 21.5816 44.3249 22.1102 43.9726 22.4624L39.7003 26.7348C39.524 26.9107 39.3037 26.9989 39.0835 26.9989Z" fill="black"/>
</svg>
