<svg width="18" height="19" viewBox="0 0 18 19" fill="none" xmlns="http://www.w3.org/2000/svg">
<path d="M14.4545 7.72727C14.4545 12.1818 8.72727 16 8.72727 16C8.72727 16 3 12.1818 3 7.72727C3 6.20831 3.60341 4.75155 4.67748 3.67748C5.75155 2.60341 7.20831 2 8.72727 2C10.2462 2 11.703 2.60341 12.7771 3.67748C13.8511 4.75155 14.4545 6.20831 14.4545 7.72727Z" stroke="white" stroke-width="2" stroke-linecap="round" stroke-linejoin="round"/>
<path d="M8.72745 9.63654C9.78181 9.63654 10.6365 8.78181 10.6365 7.72745C10.6365 6.67309 9.78181 5.81836 8.72745 5.81836C7.67309 5.81836 6.81836 6.67309 6.81836 7.72745C6.81836 8.78181 7.67309 9.63654 8.72745 9.63654Z" stroke="white" stroke-width="2" stroke-linecap="round" stroke-linejoin="round"/>
</svg>
