<svg width="20" height="20" viewBox="0 0 20 20" fill="none" xmlns="http://www.w3.org/2000/svg">
<path fill-rule="evenodd" clip-rule="evenodd" d="M10 20C15.5228 20 20 15.5228 20 10C20 4.47715 15.5228 0 10 0C4.47715 0 0 4.47715 0 10C0 15.5228 4.47715 20 10 20ZM15 13.96V12.46C15.0061 12.2148 14.9218 11.9759 14.7633 11.7887C14.6047 11.6016 14.3829 11.4793 14.14 11.445C13.66 11.3817 13.1886 11.2643 12.735 11.095C12.556 11.0277 12.3615 11.0132 12.1746 11.053C11.9876 11.0929 11.8159 11.1856 11.68 11.32L11.045 11.955C9.79323 11.2432 8.75678 10.2068 8.045 8.955L8.68 8.32C8.81443 8.18406 8.90708 8.01242 8.94695 7.82544C8.98683 7.63846 8.97227 7.44396 8.905 7.265C8.73573 6.81136 8.61831 6.34003 8.555 5.86C8.52104 5.61972 8.40087 5.39999 8.21688 5.24177C8.0329 5.08354 7.79765 4.99761 7.555 5H6.055C5.91617 5.00013 5.77889 5.02917 5.6519 5.08526C5.5249 5.14135 5.41098 5.22328 5.31738 5.32581C5.22379 5.42834 5.15256 5.54924 5.10825 5.68081C5.06394 5.81238 5.04751 5.95173 5.06 6.09C5.22412 7.6355 5.74999 9.1206 6.595 10.425C7.36267 11.6331 8.38691 12.6573 9.595 13.425C10.8935 14.2671 12.3714 14.7928 13.91 14.96C14.0487 14.9725 14.1885 14.956 14.3204 14.9114C14.4523 14.8667 14.5734 14.7951 14.676 14.7009C14.7786 14.6068 14.8605 14.4923 14.9163 14.3647C14.972 14.2371 15.0006 14.0993 15 13.96Z" fill="white"/>
</svg>
