<svg width="15" height="16" viewBox="0 0 15 16" fill="none" xmlns="http://www.w3.org/2000/svg">
<path d="M11.4706 3.9221C11.4706 6.05573 9.6929 7.78537 7.5 7.78537C5.3071 7.78537 3.52941 6.05573 3.52941 3.9221C3.52941 1.78847 5.3071 0.0588226 7.5 0.0588226C9.6929 0.0588226 11.4706 1.78847 11.4706 3.9221Z" fill="#8C8989"/>
<path d="M12.3529 15.9412C13.8149 15.9412 15.0438 14.717 14.5131 13.3547C14.4862 13.2857 14.4582 13.217 14.4291 13.1486C14.0522 12.2633 13.4997 11.4588 12.8033 10.7812C12.1069 10.1036 11.2801 9.56608 10.3701 9.19935C9.46018 8.83263 8.48491 8.64388 7.5 8.64388C6.51509 8.64388 5.53982 8.83263 4.62987 9.19935C3.71993 9.56608 2.89314 10.1036 2.1967 10.7812C1.50026 11.4588 0.947814 12.2633 0.570903 13.1486C0.541811 13.217 0.513808 13.2857 0.4869 13.3547C-0.0437827 14.717 1.18513 15.9412 2.64706 15.9412H12.3529Z" fill="#8C8989"/>
</svg>
