<svg width="25" height="24" viewBox="0 0 25 24" fill="none" xmlns="http://www.w3.org/2000/svg">
<path d="M12.502 2C18.025 2 22.502 6.477 22.502 12C22.502 17.523 18.025 22 12.502 22C10.7347 22.0029 8.99862 21.5352 7.47197 20.645L2.50597 22L3.85797 17.032C2.96706 15.5049 2.49901 13.768 2.50197 12C2.50197 6.477 6.97897 2 12.502 2ZM9.09397 7.3L8.89397 7.308C8.76449 7.31589 8.63795 7.3499 8.52197 7.408C8.41349 7.46943 8.31446 7.54622 8.22797 7.636C8.10797 7.749 8.03997 7.847 7.96697 7.942C7.59709 8.4229 7.39794 9.01331 7.40097 9.62C7.40297 10.11 7.53097 10.587 7.73097 11.033C8.13997 11.935 8.81297 12.89 9.70097 13.775C9.91497 13.988 10.125 14.202 10.351 14.401C11.4544 15.3725 12.7692 16.073 14.191 16.447L14.759 16.534C14.944 16.544 15.129 16.53 15.315 16.521C15.6062 16.506 15.8906 16.4271 16.148 16.29C16.2789 16.2225 16.4067 16.1491 16.531 16.07C16.531 16.07 16.574 16.042 16.656 15.98C16.791 15.88 16.874 15.809 16.986 15.692C17.069 15.606 17.141 15.505 17.196 15.39C17.274 15.227 17.352 14.916 17.384 14.657C17.408 14.459 17.401 14.351 17.398 14.284C17.394 14.177 17.305 14.066 17.208 14.019L16.626 13.758C16.626 13.758 15.756 13.379 15.224 13.137C15.1683 13.1127 15.1086 13.0988 15.048 13.096C14.9795 13.089 14.9104 13.0967 14.8452 13.1186C14.78 13.1405 14.7203 13.1761 14.67 13.223C14.665 13.221 14.598 13.278 13.875 14.154C13.8335 14.2098 13.7763 14.2519 13.7108 14.2751C13.6452 14.2982 13.5743 14.3013 13.507 14.284C13.4418 14.2665 13.378 14.2445 13.316 14.218C13.192 14.166 13.149 14.146 13.064 14.11C12.49 13.8595 11.9587 13.5211 11.489 13.107C11.363 12.997 11.246 12.877 11.126 12.761C10.7326 12.3842 10.3897 11.958 10.106 11.493L10.047 11.398C10.0046 11.3342 9.97033 11.2653 9.94497 11.193C9.90697 11.046 10.006 10.928 10.006 10.928C10.006 10.928 10.249 10.662 10.362 10.518C10.472 10.378 10.565 10.242 10.625 10.145C10.743 9.955 10.78 9.76 10.718 9.609C10.438 8.925 10.148 8.244 9.84997 7.568C9.79097 7.434 9.61597 7.338 9.45697 7.319C9.40297 7.313 9.34897 7.307 9.29497 7.303C9.16067 7.29633 9.0261 7.29766 8.89197 7.307L9.09397 7.3Z" fill="white"/>
</svg>
