<svg width="20" height="20" viewBox="0 0 20 20" fill="none" xmlns="http://www.w3.org/2000/svg">
<path d="M10.002 0C15.525 0 20.002 4.477 20.002 10C20.002 15.523 15.525 20 10.002 20C8.23475 20.0029 6.49862 19.5352 4.97197 18.645L0.00596719 20L1.35797 15.032C0.46706 13.5049 -0.000985252 11.768 0.00196701 10C0.00196701 4.477 4.47897 0 10.002 0ZM6.59397 5.3L6.39397 5.308C6.26449 5.31589 6.13795 5.3499 6.02197 5.408C5.91349 5.46943 5.81446 5.54622 5.72797 5.636C5.60797 5.749 5.53997 5.847 5.46697 5.942C5.09709 6.4229 4.89794 7.01331 4.90097 7.62C4.90297 8.11 5.03097 8.587 5.23097 9.033C5.63997 9.935 6.31297 10.89 7.20097 11.775C7.41497 11.988 7.62497 12.202 7.85097 12.401C8.95436 13.3725 10.2692 14.073 11.691 14.447L12.259 14.534C12.444 14.544 12.629 14.53 12.815 14.521C13.1062 14.506 13.3906 14.4271 13.648 14.29C13.7789 14.2225 13.9067 14.1491 14.031 14.07C14.031 14.07 14.074 14.042 14.156 13.98C14.291 13.88 14.374 13.809 14.486 13.692C14.569 13.606 14.641 13.505 14.696 13.39C14.774 13.227 14.852 12.916 14.884 12.657C14.908 12.459 14.901 12.351 14.898 12.284C14.894 12.177 14.805 12.066 14.708 12.019L14.126 11.758C14.126 11.758 13.256 11.379 12.724 11.137C12.6683 11.1127 12.6086 11.0988 12.548 11.096C12.4795 11.089 12.4104 11.0967 12.3452 11.1186C12.28 11.1405 12.2203 11.1761 12.17 11.223C12.165 11.221 12.098 11.278 11.375 12.154C11.3335 12.2098 11.2763 12.2519 11.2108 12.2751C11.1452 12.2982 11.0743 12.3013 11.007 12.284C10.9418 12.2665 10.878 12.2445 10.816 12.218C10.692 12.166 10.649 12.146 10.564 12.11C9.99003 11.8595 9.45865 11.5211 8.98897 11.107C8.86297 10.997 8.74597 10.877 8.62597 10.761C8.23255 10.3842 7.88969 9.95801 7.60597 9.493L7.54697 9.398C7.50459 9.33416 7.47033 9.2653 7.44497 9.193C7.40697 9.046 7.50597 8.928 7.50597 8.928C7.50597 8.928 7.74897 8.662 7.86197 8.518C7.97197 8.378 8.06497 8.242 8.12497 8.145C8.24297 7.955 8.27997 7.76 8.21797 7.609C7.93797 6.925 7.64797 6.244 7.34997 5.568C7.29097 5.434 7.11597 5.338 6.95697 5.319C6.90297 5.313 6.84897 5.307 6.79497 5.303C6.66067 5.29633 6.5261 5.29766 6.39197 5.307L6.59397 5.3Z" fill="white"/>
</svg>
